<svg width="432" height="495" viewBox="0 0 432 495" fill="none" xmlns="http://www.w3.org/2000/svg">
<path d="M219.703 174.651L222.789 175.886L233.28 182.674L234.514 184.526L228.96 188.846L219.086 195.017L206.743 203.04L197.486 209.211H196.251V252.411L193.166 251.177L180.823 243.154V199.954L191.314 193.166L205.509 183.909L219.703 174.651Z" fill="#133344"/>
<path d="M335.108 128.366L339.428 128.983L341.897 130.834V135.154L340.663 137.623L339.428 138.24L333.257 138.857L306.72 165.394V187.611L332.023 162.308L335.108 159.223L336.96 157.371H338.194L339.428 154.903L347.451 146.88L352.388 142.56L357.943 137.006V131.451L361.028 128.983L365.348 129.6L367.817 131.451V135.771L365.348 138.857H361.028L359.177 138.24V139.474L354.24 143.794L307.954 190.08L306.72 190.697V197.486L336.96 227.726V228.96L368.434 228.343L381.394 215.383H396.205L397.44 212.297L399.291 211.063L403.611 211.68L406.08 214.148V217.851L403.611 220.937H398.057L396.205 218.468V217.234H382.011L380.777 219.703L369.668 230.811H336.343L303.634 198.103L303.017 169.097L298.697 173.417L293.76 177.737L292.525 178.971V196.868L322.765 227.108L327.085 232.046L332.64 236.983L396.823 237.6L398.057 234.514L399.908 233.28H402.994L406.08 235.748L406.697 240.068L405.463 242.537L402.994 243.771L398.674 243.154L396.823 240.686L332.023 240.068L320.297 228.343L319.063 227.726V226.491H317.828L313.508 221.554L290.057 198.103V177.737H291.291L292.525 175.268L296.845 171.566L299.931 168.48L332.023 136.388V130.834L335.108 128.366Z" fill="#A0A0A0"/>
<path d="M106.148 128.366L109.851 128.983L112.32 131.451L112.937 137.006L116.023 140.708L117.874 141.943V143.177L119.726 143.794V145.028L121.577 145.646L125.897 150.583L139.474 164.16L143.794 169.097L151.2 176.503V197.486L108.617 240.068L38.2627 240.686L35.177 243.771H31.4741L29.6227 242.537V241.303H28.3884V236.983L30.857 233.897H35.7941L38.2627 236.983H108L148.731 196.251V177.12L138.24 166.628L137.623 197.486L104.297 230.811H70.9713L66.0341 226.491L57.3941 217.851H43.817L40.7313 221.554H37.0284L33.9427 218.468V213.531L37.0284 211.063L41.3484 211.68L43.817 214.148V215.383H58.6284L61.7141 218.468L71.5884 228.343H103.063L135.154 196.251L135.771 190.08L133.303 188.846L96.2741 151.817L93.1884 148.731L84.5484 140.091H78.377L75.9084 137.006V133.303L78.9941 130.217H82.697L85.7827 132.686L86.3998 138.857L95.0398 147.497L99.977 151.817L122.194 174.034L125.28 177.12L135.154 186.994V163.543L117.257 145.646L112.937 140.708L111.086 138.857H104.914L102.446 135.771V131.451L104.914 128.983L106.148 128.366Z" fill="#9D9D9E"/>
<path d="M364.114 148.114H367.817L371.52 150.583V154.903L368.434 157.989H362.88L355.474 166.011L350.537 170.331L323.383 197.486V199.337L325.851 200.571L330.171 204.274L364.114 170.331L369.051 166.011L372.137 162.926L372.754 161.691V157.989L375.223 155.52H380.16L383.246 158.606L382.629 162.309L379.543 165.394H375.84H373.371L370.286 168.48L361.029 177.12L332.023 206.126L332.64 207.977L337.577 212.297L340.046 212.914L383.246 169.714L384.48 163.543L386.331 162.309H390.034L393.737 165.394V169.097L390.651 172.183H384.48L354.24 202.423L351.154 204.891L346.834 209.829L341.28 215.383L342.514 217.851L344.366 219.703H361.029L385.714 195.017L407.314 194.4L409.783 191.314L413.486 190.697L416.571 192.549L417.189 193.783V198.72L414.103 201.189H410.4L407.931 199.337V197.486L386.331 198.103L361.646 222.789H344.366L319.68 198.103L323.383 193.783L354.857 162.309H356.091V161.074L361.029 156.754L361.646 154.903V150.583L364.114 148.114Z" fill="#A0A0A0"/>
<path d="M72.8227 148.114H76.5256L78.9941 149.349L80.2284 151.817L80.8456 156.137L117.257 192.549L120.96 196.869L119.726 199.337L114.171 204.891L111.086 207.977L104.914 214.149L101.211 218.469H99.977L98.7427 220.937L96.8913 221.554V222.789H78.9941L68.5027 212.914L54.9256 199.337L53.0741 198.103H32.0913L29.0056 201.189H25.3027L21.5999 198.103L22.217 193.166L25.3027 190.697L29.6227 191.314L32.0913 193.783V195.017H54.3084L58.6284 199.954L63.5656 204.274L78.9941 219.703H96.2741L99.977 216L98.7427 213.531L77.1427 191.931L72.8227 186.994L58.6284 172.8H52.457L49.9884 169.714V165.394L52.457 162.926H56.777L59.8627 166.011V170.331L68.5027 178.971L72.8227 183.909L101.828 212.914L103.063 213.531V212.297L108 207.977L109.234 205.509L69.737 166.011V164.16L72.8227 165.394L103.68 196.251L108 201.189L110.468 203.657L112.937 203.04L117.874 198.103L116.64 195.634L99.3598 178.354L95.0398 173.417L87.6341 166.629L78.9941 157.989L73.4398 158.606L70.3541 155.52L69.737 154.903L70.3541 150.583L72.8227 148.114Z" fill="#A1A1A1"/>
<path d="M235.131 224.023L238.217 224.64L241.303 227.109V255.497L240.069 256.731L235.749 258.583L227.726 264.137L224.64 265.989H223.406V267.84H220.937V233.28L235.131 224.023Z" fill="#DC5F1A"/>
<path d="M248.708 47.5201H250.56V66.0344L245.006 72.2058L242.537 74.6744V122.811L267.223 147.497L271.543 143.794L279.566 137.006L301.166 115.406L301.783 110.469L304.251 108H309.188L311.657 109.851L312.274 114.171L309.806 117.257L308.571 117.874H302.4L282.034 138.24H292.526L314.126 116.64H316.594L315.977 119.109L311.04 123.429L305.486 128.983L301.166 133.92L293.76 141.326L277.097 141.943L269.691 149.349L270.926 151.817L278.948 159.223L278.331 161.074L275.863 159.84L248.708 132.686L245.623 129.6L239.451 124.046V74.0572L242.537 70.9715L248.091 65.4172L248.708 47.5201Z" fill="#A3A3A3"/>
<path d="M196.251 47.5201H198.103L198.72 66.0344L204.274 71.5886L207.36 74.0572V122.812L172.183 157.989L169.097 161.074L164.777 164.777L164.16 162.309L171.566 154.903L170.331 152.434L164.16 146.263L151.2 145.646L125.897 120.343L126.514 118.492H127.749L130.834 121.577V122.812H132.069V124.046L134.537 125.28L148.114 138.857V140.092L150.583 141.326L151.817 142.56H160.457L148.114 130.217L143.177 125.897L136.389 119.109L130.834 119.726L127.749 116.64L127.131 112.937L130.217 109.234H133.92L137.006 111.086L137.623 112.32V116.64L154.286 133.303L159.223 137.623L173.417 151.817L176.503 150.583L184.526 141.943L187.611 138.857L199.337 127.132L204.274 122.812V74.6744L196.251 66.6515V47.5201Z" fill="#A6A6A6"/>
<path d="M167.863 341.28L170.331 342.514L178.354 350.537L182.674 355.474L206.126 378.926V427.68L198.72 435.086L198.103 436.32L197.486 453.6H195.634V435.086L198.72 432L203.04 427.063V378.926L198.103 374.606L193.783 369.669L190.697 366.583L180.206 356.091L177.737 357.326L172.8 362.88H164.16L162.926 365.966L139.474 389.417L140.091 393.737L138.24 396.823L137.006 397.44H132.686L129.6 394.354V390.651L132.686 386.949L138.24 387.566L145.646 379.543L161.074 364.114L161.691 362.88L152.434 363.497L128.983 386.949H127.749L127.131 385.097L151.817 360.411L171.566 359.794L177.12 354.24L175.886 351.771L167.246 343.131L167.863 341.28Z" fill="#9F9F9F"/>
<path d="M277.097 338.811H278.331L278.948 341.28H277.714L277.097 343.131L272.16 347.451L267.84 351.771L269.074 354.24L272.777 357.943L293.143 358.56L314.743 380.16V382.011L312.274 381.394L291.908 361.028H283.268L307.954 385.714H313.508L316.594 388.183V393.12L313.508 395.588H309.188L306.72 392.503L306.103 387.566L280.183 361.646V360.411H271.543L266.606 354.857L264.137 355.474L257.966 361.646L253.646 366.583L241.92 378.308V425.828L251.177 435.086V453.6H248.708V435.086L246.857 434.468L244.388 431.383L240.068 427.68L239.451 426.446V377.074L260.434 356.091L261.051 354.857H262.286L262.903 353.006L267.84 348.686L271.543 344.366H272.777L274.011 341.897L277.097 338.811Z" fill="#A1A1A1"/>
<path d="M238.217 186.377L241.303 187.611L250.56 193.783L260.434 199.954V218.468L257.349 217.234L248.092 211.68L237.6 204.891L224.023 196.251L226.492 193.783L234.514 188.846L238.217 186.377Z" fill="#4D4E4E"/>
<path d="M136.389 309.189H138.24L138.857 335.726L148.732 325.852L149.349 309.189H151.817V326.469L148.732 329.554L141.943 336.343L139.474 338.812H138.24V340.046L133.92 343.749L130.834 346.834L125.28 352.389L122.194 355.474L118.492 359.794L115.406 362.263L112.32 365.349L111.703 365.966L111.086 372.137L108.617 374.606H104.297L101.212 370.903V367.817L103.68 364.732H109.852L135.154 339.429V316.594L85.783 365.966V370.903L82.6973 373.989H78.3773L75.9087 370.903V366.583L78.3773 364.114H83.9315L135.772 312.274L136.389 309.189Z" fill="#9D9D9E"/>
<path d="M180.823 367.817L183.909 369.051L189.463 375.223L193.783 379.543L192.549 382.011L188.846 386.331L185.143 389.417L180.823 394.354L151.2 423.977L150.583 430.148L148.114 432.617H143.794L140.709 429.531L141.326 425.211L143.794 422.743L149.349 422.126L182.674 388.8L186.994 383.863L190.08 380.777L188.846 378.308L182.057 371.52L179.589 372.754L135.771 416.571L135.154 422.743L133.303 424.594H127.749L125.28 420.891V417.806L128.366 414.72H133.92L137.006 411.634L180.823 367.817Z" fill="#9E9E9E"/>
<path d="M220.937 0H224.023L227.109 2.46857L227.726 6.17143L225.874 9.25714L223.406 9.87428V170.331L220.937 169.714V9.87428L218.469 8.64L217.234 7.40571V3.70286L219.703 0.617143L220.937 0Z" fill="#9F9F9F"/>
<path d="M261.669 368.434L264.137 369.051L293.76 398.674L298.08 403.611L310.423 415.954H315.977L319.063 419.04V422.743L315.977 425.829H311.04L308.571 422.126V417.189L302.4 411.017L298.08 407.314L293.76 402.377L290.674 399.909L286.354 394.971L263.52 372.137L261.051 372.754L253.646 380.16L254.88 382.629L259.817 386.949L296.229 423.36H300.549L303.634 425.829L304.251 430.149L301.783 433.234H296.229L294.377 430.766V425.211L250.56 381.394L251.177 378.926L261.669 368.434Z" fill="#A2A3A3"/>
<path d="M291.291 308.571H293.143L293.76 324L300.548 330.788L301.166 309.188H304.868L322.766 327.086L327.703 331.406L359.794 363.497L364.731 364.114V365.348L361.646 366.583L361.028 367.2V370.903L362.88 372.754L360.411 373.371L357.943 370.286V365.348L304.868 312.274L303.634 311.657L304.251 334.491L306.72 337.577L308.571 338.811V340.046L311.04 341.28L314.126 344.983L319.063 349.303L321.531 351.771V353.006L323.383 353.623L325.234 355.474V356.708L327.703 357.943L333.874 364.114H339.428L341.897 366.583V371.52L338.811 373.988H335.108L332.64 372.137L332.023 367.2L332.64 365.348L330.171 364.114L299.314 333.257V332.023L297.463 331.406L293.143 326.468L291.291 324.617V308.571Z" fill="#A2A2A2"/>
<path d="M143.177 67.8857H146.88L149.966 70.9715L150.583 76.5257L194.4 120.343L193.783 122.811L184.526 132.686L182.057 133.92L138.857 90.72L137.006 89.4857H131.451L128.366 85.7829L128.983 81.4629L130.834 79.6115H135.771L138.857 82.6972V87.0172L144.411 93.1886L148.731 97.5086L153.669 101.829L182.057 130.217L184.526 128.983L191.314 122.194L190.08 119.726L148.731 78.3772H142.56L140.709 76.5257L140.091 71.5886L143.177 67.8857Z" fill="#A0A1A0"/>
<path d="M297.463 69.1199H302.4L304.869 71.5885V76.5256L301.783 78.9942H296.846L255.497 120.343L256.732 122.811L263.52 129.6L265.989 128.366L299.314 95.0399L304.252 90.7199L307.954 87.0171V82.0799L310.423 78.9942H315.36L318.446 82.0799L317.829 85.7828L314.743 88.8685H309.806L306.72 91.9542L299.314 98.7428L264.754 133.303H262.903L258.583 128.366L251.794 121.577L253.029 119.108L294.994 77.1428V72.2056L297.463 69.1199Z" fill="#9F9F9F"/>
<path d="M245.006 214.149L248.091 215.383L259.2 222.171L260.434 222.789V243.154L249.326 249.943L246.24 251.794H245.006V214.149Z" fill="#4B4C4C"/>
<path d="M82.6972 88.8685H86.4L89.4857 91.3371L90.1029 96.8914L164.777 171.566L212.297 172.183L211.063 174.651H164.777L158.606 169.097L88.2514 98.7428H82.08L79.6115 96.2742V91.9542L82.6972 88.8685Z" fill="#9F9F9F"/>
<path d="M204.274 27.7714H208.594L211.68 30.24V34.56L208.594 37.6457H207.36L207.977 61.0971L216 69.12V128.366L211.063 132.686L176.503 167.246L174.651 166.629L175.886 164.16L210.446 129.6L212.914 127.131V69.7371L205.509 62.3314L204.891 37.6457L201.189 34.56V30.8571L204.274 27.7714Z" fill="#A6A6A6"/>
<path d="M219.703 198.72H220.937V214.149L224.023 215.383L232.663 220.937L232.046 222.789L222.171 228.96L219.703 229.577L207.36 221.554V206.743L218.469 199.337L219.703 198.72Z" fill="#35739E"/>
<path d="M351.771 91.3372H355.474L357.943 92.5714L359.177 94.4229V98.1257L356.091 101.211H349.92L328.32 122.811L323.383 127.131L317.211 133.92L312.274 138.24L304.251 146.263L299.931 151.2L291.908 158.606L285.737 164.777L282.651 167.863L277.097 173.417L276.48 174.651H230.811L230.194 172.183L275.863 171.566L283.268 163.543L288.206 159.223L292.526 154.286L295.611 151.2L304.868 142.56L348.686 98.7429L349.92 92.5714L351.771 91.3372Z" fill="#99999A"/>
<path d="M230.811 328.32H277.097L306.72 357.943L309.806 361.028L314.743 365.966L319.68 370.286L352.388 402.994L357.943 403.611L361.028 406.697L360.411 411.017L357.943 413.486H353.623L350.537 410.4V404.846L294.377 348.686L290.674 345.6V344.366H289.44V343.131H288.206L285.737 340.046L284.503 339.428V338.194L282.651 337.577L278.331 332.64L276.48 330.788L230.811 330.171V328.32Z" fill="#A0A0A0"/>
<path d="M268.457 334.491L270.308 335.108L266.606 340.046L264.137 341.28V342.514L259.2 346.834L254.88 351.771L251.794 354.24L247.474 359.177L241.303 364.731L236.983 369.668L233.28 373.371V430.148L234.514 432.617L236.983 433.851L240.686 437.554V438.788H241.92V461.006L245.006 462.24L245.623 463.474V467.794L243.154 470.263H238.217L235.748 467.794V463.474L238.834 460.388V439.406L230.811 431.383V372.137L268.457 334.491Z" fill="#A0A0A0"/>
<path d="M175.269 335.726L177.737 336.343L185.76 344.366L190.08 349.303L208.594 367.817L213.532 372.137L214.766 373.989V432.617L212.297 435.703L209.212 438.171L207.977 440.023L207.36 461.006L209.829 462.24L211.063 463.474V467.177L208.594 470.263H203.657L201.189 467.794V462.857L203.04 461.006H204.892V439.406L212.297 432V374.606L206.126 368.434L204.274 367.2V365.966H203.04L198.72 361.029L194.4 357.326L190.08 352.389L175.269 337.577V335.726Z" fill="#9C9C9C"/>
<path d="M238.217 29.0057L239.451 29.6228L238.217 30.8571V33.9428L239.451 35.1771L242.537 36.4114L241.92 61.7142L233.28 70.3542V127.131L270.926 164.777L270.308 166.629L267.84 165.394L230.811 128.366V69.12L238.834 61.0971V37.6457L235.748 34.56V30.8571L238.217 29.0057Z" fill="#9F9F9F"/>
<path d="M169.097 328.32H214.766V330.171L170.331 330.788L158.606 342.514H157.371V343.748L154.286 346.217L149.966 351.154L134.537 366.583H133.303L132.069 369.051L96.2743 404.846V411.017L94.4228 413.486H90.72V412.251L93.8057 410.4V403.611L169.097 328.32Z" fill="#9B9B9C"/>
<path d="M221.554 332.023H223.406L224.023 485.074L227.108 487.543L227.726 491.246H225.874L224.023 487.543H220.32V485.074H221.554V332.023Z" fill="#9F9F9F"/>
<path d="M430.149 248.091H432V257.349H430.766V256.114L428.914 255.497V253.646H288.823V251.794H428.914L429.531 248.709L430.149 248.091Z" fill="#999999"/>
<path d="M151.817 360.411H171.566V361.029H165.394V362.263H172.8V362.88H164.16L162.926 365.966L139.474 389.417L140.091 393.737L138.24 396.823L137.006 397.44H132.686L129.6 394.354V390.651L132.686 386.949L138.24 387.566L145.646 379.543L161.074 364.114L161.691 362.88L152.434 363.497L128.983 386.949H127.749L127.131 385.097L151.817 360.411Z" fill="#A4A4A4"/>
<path d="M261.669 43.8171H266.606L269.074 46.2856V50.6056L267.223 53.0742H265.371V75.2914L261.051 79.6114L256.731 84.5485L254.88 86.3999H253.646L253.029 88.2514L252.411 98.1256H256.731L259.2 100.594V104.914L256.114 108H252.411L249.943 105.531L249.326 104.297V100.594L249.943 99.9771L250.56 87.0171L256.114 81.4628L260.434 76.5256L262.286 74.6742L262.903 53.6914L260.434 52.4571L259.2 51.2228V46.2856L261.669 43.8171Z" fill="#9FA0A0"/>
<path d="M38.8801 261.051H42.5829L45.6686 263.52V264.754H108.617L112.937 269.691L122.811 279.566V280.183H119.726L109.851 270.309L108 267.84L45.6686 267.223L44.4344 270.309L43.2001 270.926H38.8801L36.4115 268.457V262.903L38.8801 261.051Z" fill="#979796"/>
<path d="M394.354 261.051L398.674 261.669L401.143 263.52V268.457L398.674 270.926H393.737L391.269 267.84H332.64L320.297 280.183H317.211L320.914 275.863L330.789 265.989H332.023V264.754L391.269 264.137L394.354 261.051Z" fill="#A0A0A0"/>
<path d="M180.206 43.8171H183.909L186.994 46.9028L187.612 50.6056L184.526 53.6914H183.292L183.909 74.6742L191.314 82.0799V83.3142L193.166 83.9314L196.252 87.6342L196.869 98.7428L198.103 101.211L197.486 104.297L195.017 106.766H190.08L187.612 103.68V99.9771L190.697 96.8914H193.783L193.166 87.6342L181.44 75.9085L180.823 55.5428L177.12 51.2228V47.5199L180.206 43.8171Z" fill="#A4A4A4"/>
<path d="M251.177 394.354H256.114L258.583 396.823V401.143L256.114 404.228H253.029L253.646 413.486L265.371 425.211V446.811L268.457 448.046L269.074 449.28V453.6L265.989 456.686H262.286L259.2 453.6V449.28L261.669 446.811H263.52L262.903 426.446L250.56 414.103L249.943 402.994L248.709 401.143V396.823L251.177 394.354Z" fill="#999898"/>
<path d="M9.87439 251.794H151.817V253.646H11.1087L9.87439 253.028V251.794Z" fill="#979797"/>
<path d="M189.463 394.971H193.783L196.869 397.44V401.76L196.252 402.377L195.634 414.72L183.909 426.446L183.292 446.811L186.377 448.046L187.612 449.897V453.6L184.526 456.686H179.589L177.12 453.6V449.897L179.589 446.811H181.44V425.211L193.166 413.486L193.783 404.229L190.08 404.846L186.377 401.76V398.057L189.463 394.971Z" fill="#A5A6A6"/>
<path d="M325.851 232.046L328.32 233.28L332.64 236.983L396.823 237.6L398.057 234.514L399.908 233.28H402.994L406.08 235.749L406.697 240.069L405.463 242.537L402.994 243.771L398.674 243.154L396.823 240.686L332.023 240.069L325.851 233.897V232.046Z" fill="#ADACAD"/>
<path d="M196.251 47.5201H198.103L198.72 66.0344L204.274 71.5886L207.36 74.0572V122.812L180.206 149.966L178.354 149.349L180.823 145.646L186.994 140.092L191.314 135.154L199.337 127.132L204.274 122.812V74.6744L196.251 66.6515V47.5201Z" fill="#A6A6A6"/>
<path d="M272.777 286.354H277.097V299.314H280.8V286.971H285.12V302.4L284.503 303.017H265.371V286.971H269.691V298.697H272.777V286.354Z" fill="#223E4E"/>
<path d="M30.857 233.897H35.7941L38.2627 236.983L108 237.6V238.217L96.2741 238.834L107.383 239.451V240.068L38.2627 240.686L35.177 243.771H31.4741L29.6227 242.537V241.303H28.3884V236.983L30.857 233.897Z" fill="#ACABAC"/>
<path d="M337.577 274.011H369.669L380.16 284.503L380.777 285.737H396.206L398.674 282.651H402.377L405.463 285.12L406.08 288.823L404.229 291.909L402.994 293.143H398.674L396.206 290.674L395.589 289.44L380.777 288.823L368.434 276.48H338.812L335.726 279.566H334.492V280.8H332.023L333.257 278.331L337.577 274.011Z" fill="#9C9D9C"/>
<path d="M220.937 0H224.023L227.109 2.46857L227.726 6.17143L225.874 9.25714L223.406 9.87428V55.5429H222.789L222.172 27.1543L221.554 169.714H220.937V9.87428L218.469 8.64L217.234 7.40571V3.70286L219.703 0.617143L220.937 0Z" fill="#BCBCBC"/>
<path d="M78.9944 130.217H82.6973L85.783 132.686L86.4001 138.857L95.0401 147.497L99.9773 151.817L122.194 174.034L125.28 177.12L133.303 185.143L131.452 186.994L96.2744 151.817L93.1887 148.731L84.5487 140.091H78.3773L75.9087 137.006V133.303L78.9944 130.217Z" fill="#A3A3A3"/>
<path d="M110.469 286.354H120.343L122.812 288.206V301.166L120.343 303.017H111.086L109.234 301.783V287.588L110.469 286.354Z" fill="#243F4D"/>
<path d="M71.5886 274.011H102.446L107.383 278.949L108.617 280.183H105.531L101.829 276.48H72.8229L60.4801 288.823H44.4343L43.8172 291.291L41.3486 293.143L37.0286 292.526L35.1772 290.674L34.5601 286.354L37.6458 282.651H41.9658L45.0515 286.354H59.8629L69.1201 276.48L71.5886 274.011Z" fill="#A5A5A5"/>
<path d="M138.857 164.777L143.177 168.48L151.2 176.503V197.486L108.617 240.069L95.6571 239.451L96.2742 238.217H108L109.234 235.749L148.731 196.251V177.12L138.24 166.629L138.857 164.777Z" fill="#A0A0A0"/>
<path d="M222.789 286.971H228.96L230.811 292.526L231.429 293.76L233.28 289.44L233.897 286.971H240.069V302.4H236.366L235.749 294.377L233.897 301.166H229.577L228.343 297.463L227.726 294.994L227.109 303.017H222.789V286.971Z" fill="#183344"/>
<path d="M188.229 286.354H198.103L199.337 287.588V301.783L198.72 302.4H187.611L186.377 301.166V287.588L188.229 286.354Z" fill="#1E3949"/>
<path d="M140.709 218.469H149.349V245.006H124.046V235.131L140.709 218.469ZM141.326 220.937L125.897 236.366V242.537H146.88V220.937H141.326Z" fill="#AEAEAE"/>
<path d="M117.257 308.571H119.108L117.874 311.04L81.4628 347.451V352.388L78.3771 355.474H74.0571L71.5885 352.388V348.068L73.4399 345.6L77.7599 344.983L80.2285 346.217L81.4628 343.748L107.383 317.828L111.703 314.126L115.406 309.806L117.257 308.571Z" fill="#A09F9F"/>
<path d="M143.177 67.8857H146.88L149.966 70.9715L150.583 76.5257L183.291 109.234L182.057 111.703L148.731 78.3772H142.56L140.708 76.5257L140.091 71.5886L143.177 67.8857Z" fill="#A0A1A1"/>
<path d="M304.251 309.189L308.571 312.892L322.766 327.086L327.703 331.406L359.794 363.497L364.731 364.114V365.349L361.646 366.583L361.028 367.2V370.903L362.88 372.754L360.411 373.372L357.943 370.286V365.349L303.634 311.04L304.251 309.189Z" fill="#A4A5A5"/>
<path d="M106.149 128.366L109.852 128.983L112.32 131.451L112.937 137.006L116.023 140.708L117.874 141.943V143.177L119.726 143.794V145.028L121.577 145.646L125.897 150.583L139.474 164.16L137.623 167.863H137.006L136.389 185.76H135.772L135.154 163.543L117.257 145.646L112.937 140.708L111.086 138.857H104.914L102.446 135.771V131.451L104.914 128.983L106.149 128.366Z" fill="#A2A2A2"/>
<path d="M248.708 47.5201H250.56V66.0344L245.006 72.2058L242.537 74.6744L241.92 123.429L239.451 124.046V74.0572L242.537 70.9715L248.091 65.4172L248.708 47.5201Z" fill="#A8A8A8"/>
<path d="M325.234 309.189H328.32L338.194 319.68L353.623 335.109L358.56 339.429L364.732 345.6H370.903L373.372 348.069V352.389L370.903 354.857H365.966L364.114 353.623L362.88 347.452L325.234 309.806V309.189Z" fill="#9B9B9B"/>
<path d="M93.1887 286.354H104.297L106.766 288.206V296.228L105.532 298.08H97.5087V302.4H93.1887V286.354Z" fill="#2C4855"/>
<path d="M291.291 218.469H299.931L315.977 234.514L317.211 235.131V245.006H291.291V218.469ZM293.143 220.937V243.154H315.36V236.366L310.423 232.046L299.314 220.937H293.143Z" fill="#A2A2A2"/>
<path d="M2.46857 247.474H6.17143L9.25714 250.56L9.87428 253.029L151.817 253.646L152.434 251.794V254.263H9.87428L9.25714 256.114L6.78857 257.349H2.46857L0.617143 256.114L0 254.263V249.943L2.46857 247.474Z" fill="#DDDCDD"/>
<path d="M243.154 286.354H247.474L248.091 286.971V291.908H254.88L256.114 293.143V301.166L254.263 303.017H243.154V286.354Z" fill="#264050"/>
<path d="M241.303 375.223L243.154 375.84L241.92 378.308V425.828L251.177 435.086V453.6H248.708V435.086L246.857 434.468L244.388 431.383L240.068 427.68L239.451 426.446V377.074L241.303 375.223Z" fill="#979797"/>
<path d="M335.726 286.971H340.046L340.663 293.76L343.749 287.589L344.366 286.971H348.686V302.4H344.366L343.749 295.611L340.046 303.017H335.726V286.971Z" fill="#163544"/>
<path d="M69.7372 291.909L70.3543 294.377L67.2686 297.463L60.48 304.252L56.16 309.189H32.0914L30.8572 312.274L29.0057 313.509L24.6857 312.892L22.2172 309.806V306.103L25.3029 303.017H29.0057L32.0914 305.486V307.337L54.9257 306.72L69.7372 291.909Z" fill="#9A9A9A"/>
<path d="M282.034 359.794H288.206V360.411L283.268 361.028L307.954 385.714H313.508L316.594 388.183V393.12L313.508 395.588H309.188L306.72 392.503L306.103 387.565L280.8 362.263L282.034 359.794Z" fill="#A3A2A2"/>
<path d="M370.286 291.291L374.606 294.994L386.331 306.72H406.697L408.548 303.634L409.783 303.017H413.486L416.571 305.486V310.423L413.486 312.891H409.783L407.314 311.04V309.188H385.097L370.286 294.377V291.291Z" fill="#9E9E9E"/>
<path d="M124.663 258.583H149.349V280.183H146.88V261.051H127.132L127.749 269.074L138.24 279.566V280.183H135.154L124.663 269.691V258.583Z" fill="#B0AFAF"/>
<path d="M229.577 333.874H253.029V341.897L250.56 344.983L246.24 348.686L241.92 353.623L238.217 357.326H229.577V333.874ZM231.429 336.343V355.474H236.983L250.56 341.897V336.343H231.429Z" fill="#9A9A9A"/>
<path d="M80.8456 308.571H83.9313L80.2285 312.891L71.5885 321.531L66.6513 325.851L58.0113 334.491L57.3942 340.663L55.5428 342.514H50.6056L47.5199 338.811L48.137 334.491L50.6056 332.64H56.1599L69.737 319.063L74.6742 314.743L80.8456 308.571Z" fill="#A6A6A6"/>
<path d="M229.577 145.028H238.217L243.771 151.2L253.029 159.84V167.863H229.577V145.028ZM231.429 146.88V165.394H250.56V160.457L236.983 146.88H231.429Z" fill="#A7A8A8"/>
<path d="M77.1428 286.354H90.1028V302.4H85.7828V290.674H81.4628V302.4H77.1428V286.354Z" fill="#25414F"/>
<path d="M360.411 309.189H363.497L386.949 332.64H392.503L394.971 335.109L395.589 338.812L393.737 341.897L392.503 342.514H388.183L385.714 340.046L385.097 334.492L360.411 309.806V309.189Z" fill="#A2A2A2"/>
<path d="M199.954 236.983L202.423 237.6L213.531 244.389L215.383 245.623V246.857L204.274 253.646L202.423 254.88H199.954V236.983Z" fill="#183648"/>
<path d="M157.989 391.886L158.606 393.737L135.771 416.571L135.154 422.743L133.303 424.594H127.749L125.28 420.891V417.806L128.366 414.72H133.92L137.006 411.634L155.52 393.12L157.989 391.886Z" fill="#9E9E9E"/>
<path d="M192.549 334.491H216V357.943H207.977L207.36 356.091L204.892 354.857L192.549 342.514V334.491ZM194.4 336.343V341.28L208.594 355.474H214.149V336.343H194.4Z" fill="#A5A4A4"/>
<path d="M319.063 286.971H323.383V292.526H327.703V286.971H332.023V302.4H327.703V296.229H323.383V303.017H319.063V286.971Z" fill="#1D3846"/>
<path d="M352.388 286.971H364.114V290.674H356.708V292.526H362.263V296.229H356.708V298.697H364.114V303.017H352.388V286.971Z" fill="#2B4552"/>
<path d="M125.897 286.971H137.623V290.674H130.217V292.526H135.771V296.229H130.217V298.697H137.623V303.017H125.897V286.971Z" fill="#1E3B49"/>
<path d="M140.091 286.971H144.411V292.526L146.263 290.674L148.731 286.971H153.051L149.966 293.143L150.583 296.229L154.286 301.783V303.017H149.348L146.263 298.08V296.846H144.411V303.017H140.091V286.971Z" fill="#173240"/>
<path d="M178.354 286.354H182.674V302.4H178.971V296.228H174.034V302.4H169.714V286.971H174.034V292.526H178.354V286.354Z" fill="#1B3645"/>
<path d="M82.6972 88.8685H86.4L89.4857 91.3371L90.1029 96.8914L111.086 117.874L109.851 118.491L109.234 119.726L88.2514 98.7428H82.08L79.6115 96.2742V91.9542L82.6972 88.8685Z" fill="#A0A1A1"/>
<path d="M206.126 145.028H214.766V167.863H191.314V159.84L196.869 154.286L199.954 151.2L206.126 145.028ZM207.36 146.88L193.166 161.074V165.394L193.783 166.011H212.914V146.88H207.36Z" fill="#A0A0A1"/>
<path d="M304.869 286.971H315.977V290.674H309.189V292.526H314.743V296.229H309.189V298.697H316.594V302.4L315.977 303.017H304.869V286.971Z" fill="#2B4452"/>
<path d="M291.291 177.12H293.143L292.525 178.971V196.868L322.765 227.108L326.468 232.046L325.234 233.28L320.297 228.343L319.063 227.726V226.491H317.828L313.508 221.554L290.057 198.103V177.737L291.291 177.12Z" fill="#A0A0A0"/>
<path d="M290.057 286.971H301.166V302.4H296.846V290.674H293.76V296.846L292.526 301.166L290.057 303.017H286.971V299.314L288.823 298.697L289.44 296.229L290.057 286.971Z" fill="#183443"/>
<path d="M203.657 379.543H204.274L204.891 387.566L205.508 380.16H206.126V427.68L198.72 435.086L198.103 436.32L197.486 453.6H195.634V435.086L198.72 432L203.04 427.063L203.657 379.543Z" fill="#AFAFAF"/>
<path d="M203.04 286.971H214.149V290.674H207.36V293.143H212.914V296.229H207.36V298.697H214.766V303.017H203.04V286.971Z" fill="#193545"/>
<path d="M238.217 436.937L240.686 437.554V438.789H241.92V461.006L245.006 462.24L245.623 463.474V467.794L243.154 470.263H238.217L235.748 467.794V463.474L238.834 460.389V439.406L238.217 436.937Z" fill="#ABABAB"/>
<path d="M335.108 128.366L339.428 128.983L341.897 130.834V135.154L340.663 137.623L339.428 138.24L333.257 138.857L317.211 154.903H315.977L316.594 151.817L332.023 136.388V130.834L335.108 128.366Z" fill="#9C9C9C"/>
<path d="M52.4572 162.926H56.7772L59.8629 166.011V170.331L68.5029 178.971L72.8229 183.909L78.3772 189.463L76.5258 190.697L58.6286 172.8H52.4572L49.9886 169.714V165.394L52.4572 162.926Z" fill="#A0A0A0"/>
<path d="M291.291 258.583H315.36V269.691L312.274 272.777L304.868 280.183H301.783V278.948L306.72 274.628L312.891 268.457L313.508 260.434H293.143V280.183H291.291V258.583Z" fill="#A0A0A0"/>
<path d="M180.823 367.817L183.909 369.051L189.463 375.223L193.783 379.543L192.549 382.011L188.846 386.331L185.76 388.183L185.143 385.714L190.08 380.777L188.846 378.308L182.057 371.52L179.589 372.754L159.223 393.12H157.371L156.137 392.503L180.823 367.817Z" fill="#A0A09F"/>
<path d="M204.892 439.406L207.36 440.023V461.006L209.829 462.24L211.063 463.474V467.177L208.594 470.263H203.657L201.189 467.794V462.857L203.04 461.006H204.892V439.406Z" fill="#B2B2B2"/>
<path d="M216.617 249.326H217.851V266.606L210.446 262.286L204.891 258.583V256.731L216 249.943L216.617 249.326Z" fill="#4279A1"/>
<path d="M46.2858 264.754H108.617L112.937 269.691L122.811 279.566V280.183H119.726L109.851 270.309L108 267.84L46.2858 267.223V266.606L107.383 265.989L46.2858 265.371V264.754Z" fill="#B9B8B9"/>
<path d="M98.7427 309.189L101.211 309.806L95.657 315.36L92.5712 318.446L84.5484 326.469L81.4627 330.172L76.5255 334.492L69.1198 341.897L68.5027 347.452L66.0341 349.92H61.7141V348.686L65.417 347.452L66.0341 346.834V341.28L84.5484 322.766L89.4855 318.446L95.0398 312.892L98.1255 309.806L98.7427 309.189Z" fill="#9E9E9E"/>
<path d="M25.3027 190.697L29.6227 191.314L32.0913 193.783V195.017H54.3084V195.634L35.177 196.251L53.0741 196.869V197.486L32.0913 198.103L29.0056 201.189H25.3027L21.5999 198.103L22.217 193.166L25.3027 190.697Z" fill="#AAAAAA"/>
<path d="M261.669 368.434L264.137 369.051L273.394 378.309L272.16 378.926L271.543 380.16L263.52 372.137L261.051 372.754L253.646 380.16L254.88 382.629L259.817 386.949L269.074 396.206L267.223 398.057L250.56 381.394L251.177 378.926L261.669 368.434Z" fill="#A2A3A3"/>
<path d="M394.354 261.051L398.674 261.669L401.143 263.52V268.457L398.674 270.926H393.737L391.269 267.84L391.886 265.371H332.023V264.754L391.269 264.137L394.354 261.051Z" fill="#C1C0C0"/>
<path d="M136.389 165.394L137.623 167.863V197.486L117.874 217.234L117.257 216L116.023 215.383L135.154 196.251L135.772 190.08L133.303 188.846L132.069 186.377H134.537L135.154 186.994L135.772 185.76L136.389 165.394Z" fill="#9D9D9C"/>
<path d="M235.131 224.023L238.217 224.64L241.303 227.109V255.497L238.834 256.731L240.069 254.88L239.451 249.943V231.429L240.069 227.109L235.749 226.491L233.28 227.726L232.663 228.96H230.194L228.96 231.429L225.257 233.897L222.171 236.366V266.606H223.406V267.84H220.937V233.28L235.131 224.023Z" fill="#DB8B5A"/>
<path d="M411.017 190.697L414.72 191.314L417.188 193.783V198.72L414.103 201.189H410.4L407.931 199.337V197.486H386.948V196.869L402.994 196.251L385.714 195.634V195.017L407.314 194.4L409.783 191.314L411.017 190.697Z" fill="#ABAAAB"/>
<path d="M322.149 354.24L325.234 355.474V356.708L327.703 357.943L333.874 364.114H339.429L341.897 366.583V371.52L338.811 373.988H335.109L332.64 372.137L332.023 367.2L332.64 365.348L330.171 364.114L322.149 356.091V354.24Z" fill="#A4A4A3"/>
<path d="M72.8228 148.114H76.5256L78.9942 149.349L80.2285 151.817L80.8456 156.137L88.2513 163.543V166.629L83.9313 162.926L78.9942 157.989L73.4399 158.606L70.3542 155.52L69.7371 154.903L70.3542 150.583L72.8228 148.114Z" fill="#A7A7A7"/>
<path d="M180.206 43.8171H183.909L186.994 46.9028L187.612 50.6056L184.526 53.6914H183.292V74.6742H182.674L182.057 66.0342H181.44L180.823 55.5428L177.12 51.2228V47.5199L180.206 43.8171Z" fill="#A8A8AA"/>
<path d="M261.669 43.8171H266.606L269.074 46.2856V50.6056L267.223 53.0742H265.371V75.2914H264.754L264.137 56.7771L263.52 70.9714H262.903V53.6914L260.434 52.4571L259.2 51.2228V46.2856L261.669 43.8171Z" fill="#B5B5B6"/>
<path d="M351.771 91.3372H355.474L357.943 92.5714L359.177 94.4229V98.1257L356.091 101.211H349.92L340.046 111.086L338.811 109.851L344.983 103.68L346.217 101.211L348.686 98.7429L349.92 92.5714L351.771 91.3372Z" fill="#A3A4A4"/>
<path d="M222.789 286.971H228.96L230.811 292.526L232.046 296.229H230.811L230.194 299.314L228.96 300.549L227.726 294.994L227.109 303.017H222.789V286.971Z" fill="#274152"/>
<path d="M398.674 282.651H402.377L405.463 285.12L406.08 288.823L404.229 291.909L402.994 293.143H398.674L396.206 290.674L395.589 289.44L380.777 288.823V288.206H394.971V286.971H381.394V286.354L396.206 285.737L398.674 282.651Z" fill="#ADADAD"/>
<path d="M154.903 286.971H167.246V290.674H163.543V303.017H159.223V290.674H154.903V286.971Z" fill="#2E4856"/>
<path d="M182.674 432H183.292V446.811L186.377 448.046L187.612 449.897V453.6L184.526 456.686H179.589L177.12 453.6V449.897L179.589 446.811L182.057 445.577L182.674 432Z" fill="#ADAEAD"/>
<path d="M130.217 109.234H133.92L137.006 111.086L137.623 112.32V116.64L140.709 120.343L138.857 121.577L136.389 119.108L130.834 119.726L127.749 116.64L127.131 112.937L130.217 109.234Z" fill="#A7A6A6"/>
<path d="M310.423 78.9943H315.36L318.446 82.08L317.829 85.7829L314.743 88.8686H309.806L306.72 91.9543L304.869 93.1886L304.251 90.72L307.954 87.0172V82.08L310.423 78.9943Z" fill="#A0A1A1"/>
<path d="M304.251 108H309.188L311.657 109.851L312.274 114.171L309.806 117.257L308.571 117.874H302.4L300.548 119.726H299.314L299.931 116.64L301.166 115.406L301.783 110.469L304.251 108Z" fill="#939393"/>
<path d="M230.194 172.183H275.246V172.8L261.051 173.417L276.48 174.034V174.651H230.811L230.194 172.183Z" fill="#ABABAB"/>
<path d="M78.9944 130.217H82.6973L85.783 132.686L86.4001 138.857L89.4858 141.943V143.794L87.0173 142.56L84.5487 140.091H78.3773L75.9087 137.006V133.303L78.9944 130.217Z" fill="#979797"/>
<path d="M143.177 67.8857H146.88L149.966 70.9715L150.583 76.5257L152.434 78.9943L150.583 80.2286L148.731 78.3772H142.56L140.708 76.5257L140.091 71.5886L143.177 67.8857Z" fill="#A8A8A9"/>
<path d="M280.8 286.971H285.12V302.4L284.503 303.017H265.371V302.4L275.246 301.783L277.097 299.931L280.8 299.314V286.971Z" fill="#2A4351"/>
<path d="M222.171 26.537H222.788L223.406 56.777L222.788 96.2742L222.171 104.914H221.554V27.1542L222.171 26.537Z" fill="#989999"/>
<path d="M348.686 399.909L352.388 402.994L357.943 403.612L361.028 406.697L360.411 411.017L357.943 413.486H353.623L350.537 410.4L351.154 404.229L348.686 401.76V399.909Z" fill="#A3A5A5"/>
<path d="M113.554 361.028L114.789 363.497L111.703 365.966L111.086 372.137L108.617 374.606H104.297L101.211 370.903V367.817L103.68 364.731H109.851L113.554 361.028Z" fill="#AAAAAA"/>
<path d="M82.0799 343.131L83.3142 345.6L81.4628 347.451V352.388L78.3771 355.474H74.0571L71.5885 352.388V348.068L73.4399 345.6L77.7599 344.983L80.2285 346.217L81.4628 343.748L82.0799 343.131Z" fill="#A3A3A3"/>
<path d="M298.08 148.731L301.166 149.349L298.08 153.051L293.143 157.371L285.737 164.777L282.651 167.863L276.48 174.034H261.051L259.2 172.8L275.246 172.183L283.269 163.543L288.206 159.223L292.526 154.286L295.611 151.2L298.08 148.731Z" fill="#9E9F9F"/>
<path d="M308.571 414.72L310.423 415.954H315.977L319.063 419.04V422.743L315.977 425.829H311.04L308.571 422.126V417.189L307.337 415.337L308.571 414.72Z" fill="#9FA0A0"/>
<path d="M341.897 308.571H344.983V309.806L347.451 311.04L354.24 318.446L372.754 336.96L373.988 337.577L373.371 339.428L370.903 338.811L356.091 324L351.771 319.063L343.131 310.423L341.897 309.806V308.571Z" fill="#9E9E9E"/>
<path d="M297.463 69.1199H302.4L304.868 71.5885V76.5256L301.783 78.9942H296.846L294.994 80.2285L293.143 78.9942L294.994 77.1428V72.2056L297.463 69.1199Z" fill="#9E9F9F"/>
<path d="M230.811 328.32H277.097V330.788L230.811 330.171V328.32Z" fill="#99999A"/>
<path d="M164.777 172.8H212.297L211.063 174.651H164.777V172.8Z" fill="#9B9B9C"/>
<path d="M386.331 162.308H390.034L393.737 165.394V169.097L390.651 172.183H384.48L382.629 173.417L381.394 171.566L383.246 169.714L384.48 163.543L386.331 162.308Z" fill="#A5A5A5"/>
<path d="M126.514 118.491H127.749L130.834 121.577V122.811H132.069V124.046L134.537 125.28L148.114 138.857V140.091L150.583 141.326L152.434 143.177L161.074 143.794L159.84 145.029H150.583L125.897 120.343L126.514 118.491Z" fill="#9B9B9B"/>
<path d="M430.149 248.091H432V257.349H430.766V256.114L428.914 255.497V253.646H394.971L395.589 251.794H428.914L429.531 248.709L430.149 248.091Z" fill="#9A9B9B"/>
<path d="M385.097 195.634H404.845L402.994 196.869L386.948 197.486L367.2 217.234L364.731 216L385.097 195.634Z" fill="#9C9D9D"/>
<path d="M251.177 394.354H256.114L258.583 396.823V401.143L256.114 404.228H252.411L251.794 407.931H251.177L250.56 403.611L248.709 401.143V396.823L251.177 394.354Z" fill="#9F9F9F"/>
<path d="M364.114 148.114H367.817L371.52 150.583V154.903L368.434 157.989H362.88L361.646 158.606L361.028 156.754L361.646 154.903V150.583L364.114 148.114Z" fill="#A1A1A1"/>
<path d="M399.291 211.063L403.611 211.68L406.08 214.148V217.851L403.611 220.937H398.057L396.205 218.468V217.234L394.354 216.617L398.057 211.68L399.291 211.063Z" fill="#9B9A9A"/>
<path d="M250.56 403.611L251.794 406.08L253.029 404.229L253.646 413.486L265.371 425.211V430.766L264.754 441.257L264.137 444.96H263.52L262.903 426.446L250.56 414.103V403.611Z" fill="#A7A7A8"/>
<path d="M132.686 386.948L137.006 387.566L137.623 388.183V391.268L139.474 390.651L140.091 393.737L138.24 396.823L137.006 397.44H132.686L129.6 394.354V390.651L132.686 386.948Z" fill="#ACACAB"/>
<path d="M257.966 286.354H262.286V303.017H257.349V286.971L257.966 286.354Z" fill="#324B59"/>
<path d="M361.029 128.983L365.349 129.6L367.817 131.451V135.771L365.349 138.857H358.56L357.943 135.771V131.451L361.029 128.983Z" fill="#979797"/>
<path d="M2.46857 247.474H6.17143L9.25714 250.56L9.87428 253.029L11.1086 253.646L9.87428 254.263L9.25714 256.114L6.78857 257.349H2.46857L0.617143 256.114L0 254.263V249.943L2.46857 247.474Z" fill="#959595"/>
<path d="M204.274 27.7714H208.594L211.68 30.24V34.56L208.594 37.6457H207.36V35.7943L203.657 37.0286L201.189 34.56V30.8571L204.274 27.7714Z" fill="#A4A5A4"/>
<path d="M360.411 309.189H363.497L387.566 333.257L385.714 335.726L381.394 330.789L360.411 309.806V309.189Z" fill="#A4A4A3"/>
<path d="M365.966 345.6H370.903L373.371 348.068V352.388L370.903 354.857H365.966L364.114 353.623L363.497 349.303L364.731 346.834H365.966V345.6Z" fill="#9C9C9C"/>
<path d="M409.783 303.017H413.486L416.572 305.486V310.423L413.486 312.891H409.783L407.314 311.04L407.932 307.337L406.697 306.72L408.549 303.634L409.783 303.017Z" fill="#A3A3A2"/>
<path d="M297.463 423.36L301.783 423.977L304.251 427.063L303.634 431.383L301.783 433.234H296.229L294.377 430.766V425.828L294.994 427.063H296.846L297.463 424.594L295.611 425.211V423.977L297.463 423.36Z" fill="#A2A3A2"/>
<path d="M77.1428 286.971H89.4857V287.589L82.6971 288.206L82.08 289.44H85.1657V290.057H81.4628V302.4H77.1428V286.971Z" fill="#163341"/>
<path d="M77.1428 190.08L79.6114 190.697L102.446 213.531L100.594 215.383L77.1428 191.931V190.08Z" fill="#A4A4A4"/>
<path d="M399.909 233.28H402.994L406.08 235.749L406.697 240.069L405.463 242.537L402.994 243.771L398.674 243.154L398.057 241.92L397.44 237.6V235.749L399.909 233.28Z" fill="#A8A8A8"/>
<path d="M375.223 155.52H380.16L383.246 158.606L382.628 162.308L379.543 165.394H375.84L375.223 164.16H376.457V162.308L373.988 161.691L374.606 158.606H373.371V161.691H372.754V157.988L375.223 155.52Z" fill="#A7A7A7"/>
<path d="M149.966 158.606L152.434 159.223L164.777 171.566L212.297 172.183V172.8H164.777L164.16 174.034L159.223 169.714L149.966 160.457V158.606Z" fill="#AFAFAF"/>
<path d="M229.577 145.028H238.217L243.771 151.2L245.006 153.668H243.154L236.983 147.497L231.429 146.88L232.046 165.394L232.663 167.246H229.577V145.028Z" fill="#949495"/>
<path d="M38.8801 261.051H42.5829L44.4344 262.903L45.0515 266.606L45.6686 268.457L43.2001 270.926H38.8801L36.4115 268.457V262.903L38.8801 261.051Z" fill="#9F9F9F"/>
<path d="M291.291 308.571H293.143L293.76 324L300.548 330.788L301.783 331.406V332.64L298.08 332.023L292.526 325.851L291.291 324.617V308.571ZM301.783 312.274H302.4L303.017 316.594V330.788L301.783 331.406V312.274Z" fill="#999A9A"/>
<path d="M143.794 422.743H148.731L148.114 423.977H146.88V425.211L149.349 426.446V429.531L150.583 430.149L148.114 432.617H143.794L140.709 429.531L141.326 425.211L143.794 422.743Z" fill="#ABABAB"/>
<path d="M335.726 286.971H339.429L340.046 296.229H341.897V299.931L340.046 303.017H335.726V286.971Z" fill="#183240"/>
<path d="M192.549 334.491H216V341.28L215.383 348.068L214.149 349.303V336.343H194.4V341.28L192.549 339.428V334.491Z" fill="#9B9B9B"/>
<path d="M37.0285 211.063H40.1142L39.497 212.914L41.9656 215.383V217.234H43.1999L42.5827 219.703L40.7313 221.554H37.0285L33.9427 218.468V213.531L37.0285 211.063Z" fill="#A3A2A2"/>
<path d="M82.6972 88.8685H86.4L89.4857 91.3371L88.8686 92.5714L87.6343 91.9542V95.6571L85.7829 96.2742L86.4 98.7428H82.08L79.6115 96.2742V91.9542L82.6972 88.8685Z" fill="#A2A3A3"/>
<path d="M241.303 427.063L243.771 427.68L251.177 435.086V453.6H248.709V435.086L246.857 434.468L244.389 431.383L240.686 428.297L241.303 427.063Z" fill="#A0A1A0"/>
<path d="M229.577 334.491H251.177V335.726L241.92 336.343H231.429V352.388L230.811 353.006L230.194 357.326H229.577V334.491Z" fill="#9D9D9D"/>
<path d="M72.8229 274.011H102.446L107.383 278.949L108.617 280.183H105.531L101.829 276.48L72.8229 275.863V274.011Z" fill="#9C9C9C"/>
<path d="M37.6458 282.651H41.9658L39.4972 283.269V284.503L41.9658 285.737L42.5829 286.354V290.057L44.4343 290.674L41.3486 293.143L37.0286 292.526L35.1772 290.674L34.5601 286.354L37.6458 282.651Z" fill="#A6A6A6"/>
<path d="M140.091 219.086H148.731V243.771L147.497 242.537V220.937L141.326 221.554L129.6 233.28L128.366 232.663L132.686 227.726L138.857 221.554L140.091 219.086Z" fill="#9C9D9D"/>
<path d="M138.857 164.777L143.177 168.48L151.2 176.503V197.486L149.348 196.869L148.731 177.12L138.24 166.629L138.857 164.777Z" fill="#979797"/>
<path d="M219.086 485.691H220.32L220.937 486.926H224.023L225.874 489.394V491.246H227.109L226.492 493.714L224.64 494.949H219.703L217.852 493.097L217.234 488.16L219.086 485.691Z" fill="#A6A6A6"/>
<path d="M90.103 403.611H93.8059L94.423 405.463V410.4L92.5716 412.251H90.7201V413.486H93.8059V414.103H89.4859L86.4001 410.4V406.697L88.8687 404.229L90.103 403.611Z" fill="#A5A6A6"/>
<path d="M114.789 286.971H121.577L122.811 288.206V301.166H120.343V299.931L119.109 299.314V298.697H118.491L117.874 290.674L116.023 290.057V287.589L114.789 286.971Z" fill="#223D4A"/>
<path d="M264.137 56.1599H264.754V75.9085L254.88 86.3999H253.646L253.028 88.2513L251.177 86.3999L256.114 81.4628L260.434 76.5256L262.286 74.6742L262.903 70.9713L263.52 56.7771L264.137 56.1599Z" fill="#A0A0A0"/>
<path d="M180.823 370.903L182.674 371.52L181.44 372.137L180.823 375.223L180.206 373.989L175.269 378.309L136.389 417.189L135.772 421.509H135.154V416.571L180.823 370.903Z" fill="#EEEEEE"/>
<path d="M149.349 309.189H151.817V326.469L148.732 329.554L142.56 335.726L141.943 333.874L144.412 332.64L145.029 329.554L148.732 325.852L149.349 309.189Z" fill="#ABABAB"/>
<path d="M309.188 385.714H313.508L316.594 388.183V393.12L313.508 395.588H310.423L308.571 391.886L309.188 388.8V386.331V385.714Z" fill="#A7A7A7"/>
<path d="M220.937 0H224.023L227.109 2.46857L227.726 6.17143L226.492 8.02286V6.78857L224.64 8.02286H220.32L219.086 6.17143V4.32H217.852V7.40571H217.234V3.70286L219.703 0.617143L220.937 0Z" fill="#AAACAC"/>
<path d="M130.834 79.6113H135.771L138.857 82.697L138.24 85.1656V83.3142H137.006L136.389 86.3999L135.154 87.6342L131.451 87.017H129.6L128.366 85.7828L128.983 81.4628L130.834 79.6113Z" fill="#A5A6A5"/>
<path d="M238.834 27.1542L243.154 27.7714L245.623 30.2399V34.5599L242.537 37.0285L238.834 35.1771L237.6 33.9428V30.8571L238.217 29.6228L235.748 30.8571L236.983 28.3885L238.834 27.1542Z" fill="#A7A7A7"/>
<path d="M290.057 286.971L293.143 287.589L293.76 296.846L292.526 301.166L290.057 303.017H286.971V299.314L288.823 298.697L289.44 296.229L290.057 286.971Z" fill="#233E4D"/>
<path d="M106.149 128.366L108.617 128.983L107.383 130.217L109.852 131.451L110.469 135.154L109.234 137.006L106.766 137.623L109.852 138.24V138.857H104.914L102.446 135.771V131.451L104.914 128.983L106.149 128.366Z" fill="#A0A09F"/>
<path d="M221.554 332.023H223.406V357.326L222.788 365.966L221.554 366.583V332.023Z" fill="#9D9D9D"/>
<path d="M147.497 365.966H148.731L147.497 368.434L128.983 386.948H127.749L127.131 385.097L141.943 370.286L145.029 368.434L147.497 365.966Z" fill="#9F9E9E"/>
<path d="M364.731 364.114L367.2 365.349L368.434 367.2L367.817 371.52L365.349 373.989H361.646L361.029 371.52L360.411 370.903V367.2L362.263 365.349H364.731V364.114Z" fill="#AFAFAF"/>
<path d="M69.7372 291.909L70.3543 294.377L67.2686 297.463L60.48 304.252L56.16 309.189H32.7086V308.572H53.0743V307.337L56.16 305.486L69.7372 291.909Z" fill="#A3A3A4"/>
<path d="M238.217 29.0057L239.451 29.6228L238.217 30.8571V33.9428L239.451 35.1771L242.537 36.4114L241.92 37.6457L241.303 59.8628L240.068 60.48L238.834 37.6457L235.748 34.56V30.8571L238.217 29.0057Z" fill="#969797"/>
<path d="M61.7143 340.046L66.6514 340.663V346.834L64.8 348.686L59.8629 349.303L59.2457 347.451V341.897L61.7143 340.046Z" fill="#ACACAC"/>
<path d="M80.8456 308.571H83.9314L80.2285 312.891L71.5885 321.531L66.6514 325.851L61.0971 331.406H59.8628L61.0971 328.937L70.3542 319.68L74.6742 314.743L80.8456 308.571Z" fill="#9C9C9C"/>
<path d="M125.28 259.2H130.217V260.434H127.131L127.749 269.074L138.24 279.566V280.183H135.154L125.28 270.309V259.2Z" fill="#A3A3A3"/>
<path d="M298.697 117.874L299.932 120.343L283.886 136.388H281.417L282.652 133.92L298.697 117.874Z" fill="#9E9F9F"/>
<path d="M191.314 148.731L192.549 149.349L191.931 151.817L176.503 167.246L174.651 166.629L175.886 164.16L191.314 148.731Z" fill="#999999"/>
<path d="M247.474 286.971H248.091V291.909H254.88V292.526H247.474V293.76L249.326 294.377L248.708 294.994L251.794 296.229V298.697H246.857V296.229H245.006L244.388 297.463V287.589L247.474 286.971Z" fill="#294454"/>
<path d="M107.383 128.983L111.086 129.6L112.32 131.451L112.937 137.006L116.023 140.709L117.874 141.943V143.177L119.726 143.794L120.343 145.646L119.109 147.497L111.703 139.474L111.086 138.857L106.149 138.24L106.766 137.006L109.234 136.389L109.851 132.686L109.234 131.451L106.766 130.217L107.383 128.983Z" fill="#A0A09F"/>
<path d="M206.743 296.846L207.36 298.697H214.766V303.017H203.04L203.657 298.08L205.509 297.463L206.126 298.697L206.743 296.846Z" fill="#314756"/>
<path d="M331.406 162.926L332.64 163.543L309.806 186.377L309.188 188.846L307.337 190.08V188.846H305.486V166.011H306.103L306.72 187.611L331.406 162.926Z" fill="#ADADAD"/>
<path d="M301.166 309.189H304.251V335.109L302.4 336.343L299.314 332.64L300.548 332.023L301.783 332.64L301.166 331.406V309.189ZM301.783 312.274V331.406L303.017 330.789V316.594L302.4 312.274H301.783Z" fill="#ABABAC"/>
<path d="M132.686 343.131L133.92 343.748L130.834 346.834L125.28 352.388L122.194 355.474L118.492 359.794L114.172 362.88L114.789 359.794L130.834 343.748L132.686 343.131Z" fill="#989897"/>
<path d="M304.251 309.189L308.571 312.892L322.766 327.086L324 327.703V328.937L320.914 328.32L303.634 311.04L304.251 309.189Z" fill="#9A9A9A"/>
<path d="M282.034 359.794H288.206V360.411L283.268 361.028L296.228 373.988L294.377 375.84L280.8 362.263L282.034 359.794Z" fill="#A9A8A8"/>
<path d="M126.514 251.794H151.817V253.646H126.514V251.794Z" fill="#989899"/>
<path d="M240.069 227.109H241.303V255.497L238.834 256.731L240.069 254.88L239.451 249.943V231.429L240.069 227.109Z" fill="#D27744"/>
<path d="M303.634 91.3372H304.869L304.252 93.8057L282.652 115.406H281.417L282.652 112.937L301.166 94.4229L301.783 92.5714L303.634 91.3372Z" fill="#999999"/>
<path d="M202.423 461.623L204.892 462.24L203.657 464.091L204.274 467.794H207.977L208.594 464.091L205.509 462.857L207.36 461.623L209.829 462.24L211.063 463.474V467.177L208.594 470.263H203.657L201.189 467.794V462.857L202.423 461.623Z" fill="#A0A1A0"/>
<path d="M159.84 290.057H162.308L162.926 291.908V302.4H159.223V290.674L159.84 290.057Z" fill="#173444"/>
<path d="M72.8228 148.114H76.5256L78.9942 149.349L79.6113 153.669L78.3771 154.286L77.1428 151.2L76.5256 150.583H73.4399L72.8228 151.817V155.52L76.5256 156.137L75.9085 158.606L72.2056 157.989L69.7371 154.903L70.3542 150.583L72.8228 148.114Z" fill="#9F9F9F"/>
<path d="M291.291 177.12H293.143L292.525 178.971V198.72L290.057 198.103V177.737L291.291 177.12Z" fill="#979797"/>
<path d="M335.109 364.114H339.429L341.897 366.583V371.52L338.811 373.989H335.109L333.257 372.754V368.434L335.726 371.52H338.811L339.429 370.903V367.2L335.726 366.583H333.257L335.109 364.114Z" fill="#9F9F9F"/>
<path d="M222.788 467.177H223.406L224.023 485.074L227.108 487.543L227.726 491.246H225.874L224.023 487.543H220.32V485.074H221.554V479.52L222.788 467.177Z" fill="#A2A2A2"/>
<path d="M293.143 399.291L297.463 402.994L308.571 414.103V415.337L306.103 414.72L298.08 407.314L293.76 402.377L292.526 399.908L293.143 399.291Z" fill="#9E9F9F"/>
<path d="M330.789 265.989L332.023 266.606L330.789 267.84V269.691L320.297 280.183H317.211L320.914 275.863L330.789 265.989Z" fill="#A9AAAA"/>
<path d="M285.12 162.926L285.737 164.777L282.651 167.863L276.48 174.034H261.051L259.2 172.8L275.246 172.183L283.269 164.777L285.12 162.926Z" fill="#979898"/>
<path d="M291.291 218.469H299.931L299.314 220.32H293.143V238.834L291.908 239.451L291.291 218.469Z" fill="#989899"/>
<path d="M140.091 120.343L142.56 121.577L154.286 133.303L153.669 134.537L151.2 133.303L141.326 124.046L139.474 122.194L140.091 120.343Z" fill="#9D9D9D"/>
<path d="M35.1771 195.634H54.9257L59.2457 200.571L58.6285 201.806L56.16 200.571L53.0743 198.103V196.869H33.3257L35.1771 195.634Z" fill="#959696"/>
<path d="M103.063 288.206L105.531 288.823L106.149 297.463L105.531 298.08H99.36V294.994L101.829 294.377L102.446 290.674H103.68L103.063 288.206Z" fill="#153240"/>
<path d="M356.091 361.028L358.56 362.263L359.794 363.497L364.731 364.114V365.348L361.646 366.583L361.029 367.2V370.903L362.88 372.754L360.411 373.371L357.943 370.286V365.348L355.474 362.88L356.091 361.028Z" fill="#9D9D9D"/>
<path d="M241.303 37.6457H241.92V61.7143L239.451 63.5657L236.983 64.8L234.514 67.8857L232.046 68.5028L235.749 64.1828L238.834 61.0971L239.451 49.3714H240.069L240.686 59.8628L241.303 37.6457Z" fill="#B6B6B7"/>
<path d="M183.909 422.743L185.143 423.36L184.526 425.829L183.909 426.446L183.291 432L182.674 445.577L181.44 446.194V425.211L183.909 422.743Z" fill="#9E9E9E"/>
<path d="M248.708 47.5201H250.56V66.0344L248.091 66.6515L248.708 47.5201Z" fill="#959797"/>
<path d="M79.6113 220.32H98.1256V221.554H96.8913V222.789H78.9941V222.171L85.1656 221.554L79.6113 220.937V220.32Z" fill="#B0B0B0"/>
<path d="M87.6342 164.16L90.1027 165.394L101.828 177.12L100.594 178.354L95.657 174.034L88.2513 167.246L87.6342 164.16Z" fill="#9C9C9C"/>
<path d="M354.24 335.726L358.56 339.429L364.731 345.6L365.966 346.834L364.731 347.451L363.497 349.303L361.646 346.217L353.006 337.577L354.24 335.726Z" fill="#A5A5A5"/>
<path d="M190.697 290.674H195.017V298.697H190.697V290.674Z" fill="#F9FBFA"/>
<path d="M117.257 228.96H118.491L117.257 231.429L108.617 240.069L95.6571 239.451L96.2742 238.217L108.617 237.6L117.257 228.96Z" fill="#9B9B9B"/>
<path d="M182.057 65.4171H182.674V74.6743L185.143 75.9085L190.08 80.8457L188.846 83.3143L181.44 75.9085V66.0343L182.057 65.4171Z" fill="#9D9E9E"/>
<path d="M140.091 286.971L143.794 287.589V294.994L141.943 295.611V294.377H140.708V302.4H144.411V303.017H140.091V286.971Z" fill="#26404E"/>
<path d="M272.777 358.56H290.057L291.909 359.794L288.206 360.411L282.034 359.794L281.417 361.646H280.183V360.411H271.543V359.177L272.777 358.56Z" fill="#9A9B9B"/>
<path d="M132.686 159.223L135.154 159.84L139.474 164.16L137.623 167.863H137.006L136.389 185.76H135.771L135.154 163.543L132.069 159.84L132.686 159.223Z" fill="#AAAAAA"/>
<path d="M280.8 135.771L283.268 137.006L282.034 138.24L292.526 138.857V139.474L280.8 140.091L293.76 140.709V141.326L276.48 141.943L275.863 140.091L280.8 135.771Z" fill="#ABABAB"/>
<path d="M314.126 116.64H316.594L315.977 119.109L313.508 120.343L311.04 121.577L294.377 138.24L293.143 137.623L314.126 116.64Z" fill="#A8A8A8"/>
<path d="M195.634 435.703H197.486V453.6H195.634V435.703Z" fill="#9A9A9B"/>
<path d="M381.394 215.383H395.589L394.354 217.234H382.011L380.777 219.703L378.926 220.937V219.086L380.777 216L381.394 215.383Z" fill="#A4A4A4"/>
<path d="M78.9944 132.069H82.6973L83.9316 133.303V137.006L82.6973 138.24H78.9944L77.7601 136.389L78.3773 132.686L78.9944 132.069Z" fill="#F1F0F0"/>
<path d="M399.291 284.503L402.994 285.12L403.611 285.737V290.057L402.377 291.291L398.674 290.674L398.057 290.057V285.737L399.291 284.503Z" fill="#F6F6F6"/>
<path d="M39.4972 283.269H42.5829L45.0515 286.354L56.16 286.971L57.3943 288.206L45.0515 288.823L44.4343 290.057H42.5829L41.3486 285.737L39.4972 284.503V283.269Z" fill="#9C9C9C"/>
<path d="M312.274 417.806H315.36L317.211 419.657L316.594 422.743L315.36 423.977L311.657 423.36L310.423 422.126L311.04 419.04L312.274 417.806Z" fill="#EFEFEE"/>
<path d="M128.983 416.571H132.068L133.92 418.423L133.303 422.126L132.686 422.743H128.983L127.748 421.508V417.806L128.983 416.571Z" fill="#F0F0F0"/>
<path d="M196.251 47.5201H198.103V64.8001H196.251V47.5201Z" fill="#929494"/>
<path d="M180.823 448.663H183.909L185.143 449.897V453.6L183.909 454.834H180.823L178.971 452.983L179.589 449.28L180.823 448.663Z" fill="#F6F6F6"/>
<path d="M251.794 396.206H255.497L256.731 397.44V401.143L255.497 402.377L251.794 401.76L250.56 400.526L251.177 396.823L251.794 396.206Z" fill="#F3F3F2"/>
<path d="M53.0744 164.777H56.7772L58.0115 166.629L57.3944 170.331L53.0744 170.949L51.8401 169.097L52.4572 165.394L53.0744 164.777Z" fill="#F5F5F5"/>
<path d="M73.4399 149.966H76.5256L78.377 151.817L77.7599 154.903L76.5256 156.137H72.8227L72.2056 155.52V151.817L73.4399 149.966Z" fill="#F4F3F3"/>
<path d="M191.314 98.7428L194.4 99.3599L195.634 100.594V103.68L193.783 104.914H190.697L189.463 103.68V99.9771L191.314 98.7428Z" fill="#F3F3F3"/>
<path d="M220.937 486.926H224.023L225.257 488.16V491.863L224.023 493.097H220.937L219.086 491.246L219.703 488.16L220.937 486.926Z" fill="#F3F3F3"/>
<path d="M74.0571 347.452H78.3771L79.6114 348.686L78.9942 352.389L77.1428 353.623L74.0571 353.006L73.4399 348.686L74.0571 347.452Z" fill="#F3F3F2"/>
<path d="M25.92 304.869L29.6229 305.486L30.24 306.103V310.423L29.6229 311.04H25.92L24.0686 309.189L24.6857 306.103L25.92 304.869Z" fill="#F6F6F6"/>
<path d="M314.743 267.223L315.36 269.691L312.274 272.777L304.868 280.183H301.783V278.949L306.72 274.629L309.188 272.777L312.891 269.691L314.743 267.223Z" fill="#A6A6A7"/>
<path d="M410.4 193.166H414.103L415.337 194.4V197.486L413.486 199.337L409.783 198.72L409.166 195.017L410.4 193.166Z" fill="#F3F3F3"/>
<path d="M341.28 175.886L343.131 176.503L341.897 178.971L334.491 186.377L332.023 186.994L330.789 187.611L332.023 185.143L341.28 175.886Z" fill="#999999"/>
<path d="M210.446 145.646H214.149V167.246H211.68V166.011H212.914V146.88H210.446V145.646Z" fill="#939494"/>
<path d="M261.051 75.9086L261.668 78.3771L259.2 82.08L254.88 86.4H253.646L253.028 88.2514L251.177 86.4L256.114 81.4629L260.434 76.5257L261.051 75.9086Z" fill="#A3A4A4"/>
<path d="M298.697 70.9715H301.783L303.017 72.8229V75.9086L301.166 77.1429L297.463 76.5258L296.846 75.9086V72.8229L298.697 70.9715Z" fill="#F2F2F2"/>
<path d="M262.286 45.6685H265.989L267.223 47.5199L266.606 50.6057L265.371 51.8399L261.669 51.2228L261.051 46.9028L262.286 45.6685Z" fill="#F1F1F1"/>
<path d="M239.451 462.24L243.154 462.857L243.771 467.177L242.537 468.411L238.217 467.794L237.6 464.091L239.451 462.24Z" fill="#F2F2F2"/>
<path d="M291.291 308.571H293.143L293.76 324.617H291.291V308.571Z" fill="#A2A3A4"/>
<path d="M410.4 304.869L414.103 305.486L414.72 306.103V309.806L413.485 311.04H410.4L408.548 309.189L409.165 306.103L410.4 304.869Z" fill="#F8F8F8"/>
<path d="M2.46858 249.943H6.78858L8.02287 251.177L7.40573 254.88L6.78858 255.497H2.46858L1.85144 254.88V250.56L2.46858 249.943Z" fill="#F8F8F7"/>
<path d="M180.206 199.954H180.823V243.154L183.908 244.389L181.44 245.006L180.206 244.389V199.954Z" fill="#EDEFEF"/>
<path d="M115.406 216H117.257L116.64 218.469L108 227.109L106.149 225.257L115.406 216Z" fill="#A4A4A4"/>
<path d="M109.851 188.229H112.937L117.257 192.549L120.96 196.869L119.726 199.337H117.874L117.257 196.251L109.851 188.846V188.229Z" fill="#A7A7A7"/>
<path d="M83.3143 90.72L86.4 91.3371L87.6343 92.5714V95.6571L85.7829 96.8914H82.6972L81.4629 95.6571V92.5714L83.3143 90.72Z" fill="#F5F5F5"/>
<path d="M298.08 425.211L301.166 425.828L302.4 427.063L301.783 430.766L297.463 431.383L296.229 430.148L296.846 425.828L298.08 425.211Z" fill="#F6F6F5"/>
<path d="M310.423 387.566L314.126 388.183L314.743 392.503L312.891 393.737L309.188 393.12L308.571 389.417L310.423 387.566Z" fill="#F6F6F5"/>
<path d="M335.726 365.966L339.429 366.583L340.046 367.2V370.903L338.811 372.137H335.726L333.874 370.286L334.491 367.2L335.726 365.966Z" fill="#F1F1F1"/>
<path d="M291.908 261.668H292.526L293.143 265.371V280.183H291.291V264.137L291.908 261.668Z" fill="#999999"/>
<path d="M394.972 262.903L398.057 263.52L399.292 264.754V267.84L398.057 269.074L393.737 268.457L393.12 264.754L394.972 262.903Z" fill="#F2F2F1"/>
<path d="M399.909 235.749H403.611L404.846 237.6L404.229 240.686L402.994 241.92L399.909 241.303L398.674 240.069V236.983L399.909 235.749Z" fill="#F5F5F5"/>
<path d="M361.645 130.834L365.348 131.451L365.965 135.154L364.114 137.006H361.028L359.794 135.771V132.686L361.645 130.834Z" fill="#F2F2F2"/>
<path d="M131.451 111.086L134.537 111.703L135.771 112.937L135.154 116.64L130.834 117.257L129.6 116.023V112.937L131.451 111.086Z" fill="#F8F8F8"/>
<path d="M78.9944 365.966H82.0801L83.9316 367.817L83.3144 371.52L79.6116 372.137L77.7601 369.668L78.3773 366.583L78.9944 365.966Z" fill="#F3F3F3"/>
<path d="M25.3029 193.166H29.0057L30.24 194.4V197.486L29.0057 198.72H24.6857L24.0686 194.4L25.3029 193.166Z" fill="#F8F7F7"/>
<path d="M365.349 149.966L368.434 150.583L369.669 151.817L369.051 155.52L365.349 156.137L363.497 154.286L364.114 150.583L365.349 149.966Z" fill="#F7F7F7"/>
<path d="M131.451 81.4629H135.154L136.389 82.6972V86.4L135.154 87.6343L131.451 87.0172L130.834 86.4V82.08L131.451 81.4629Z" fill="#F3F3F3"/>
<path d="M89.4858 406.08H93.1886L94.4229 407.314V410.4L93.1886 411.634H89.4858L88.2515 410.4V407.314L89.4858 406.08Z" fill="#F6F6F6"/>
<path d="M229.577 333.874H253.029V341.897H252.411L251.794 336.343L251.177 341.28H250.56V336.343H241.92V335.726H251.177V334.491H229.577V333.874Z" fill="#BBBBBB"/>
<path d="M386.948 164.16H390.034L391.268 165.394V169.097L390.034 170.331H386.948L385.714 169.097V165.394L386.948 164.16Z" fill="#F5F5F5"/>
<path d="M305.486 109.851H308.571L309.806 111.086V114.789L308.571 116.023H305.486L304.251 114.789V111.086L305.486 109.851Z" fill="#F7F7F7"/>
<path d="M205.508 35.7943H207.36V52.4571L206.126 51.84L205.508 49.3714L204.891 37.6457L204.274 36.4114L205.508 35.7943Z" fill="#959697"/>
<path d="M144.411 424.594L148.114 425.211L148.731 425.829V429.531L147.497 430.766H144.411L143.177 429.531V425.829L144.411 424.594Z" fill="#F8F8F8"/>
<path d="M366.583 347.452H370.286L371.52 348.686V351.772L370.286 353.006H366.583L365.349 351.772L365.966 348.069L366.583 347.452Z" fill="#F5F5F4"/>
<path d="M167.863 341.28L170.331 342.514L177.737 349.92L176.503 352.389L167.246 343.131L167.863 341.28Z" fill="#A2A2A1"/>
<path d="M38.2627 285.12H41.3484L42.5827 286.354V290.057L40.7313 291.292L37.6456 290.674L37.0284 290.057V286.354L38.2627 285.12Z" fill="#FAF9F9"/>
<path d="M40.1142 262.903L43.2 263.52L43.8171 264.137V267.84L42.5828 269.074H39.4971L38.2628 267.84V264.137L40.1142 262.903Z" fill="#F2F2F1"/>
<path d="M31.4743 235.749H35.1772L36.4115 236.983V240.069L34.56 241.92L31.4743 241.303L30.8572 240.686V236.366L31.4743 235.749Z" fill="#F8F8F8"/>
<path d="M399.908 212.914L402.994 213.531L403.611 214.148V218.468L402.994 219.086H399.291L398.057 217.851V214.766L399.908 212.914Z" fill="#F6F6F6"/>
<path d="M105.531 130.834H109.234L110.469 132.686L109.851 136.389H105.531L104.297 135.154L104.914 131.451L105.531 130.834Z" fill="#F3F2F2"/>
<path d="M238.834 29.6229H242.537L243.771 31.4743L243.154 34.56L242.537 35.1771H238.834L237.6 33.9429V30.8571L238.834 29.6229Z" fill="#F6F6F5"/>
<path d="M204.274 462.857H207.977L209.211 464.091L208.594 467.794L207.977 468.411H204.274L203.04 466.56L203.657 463.474L204.274 462.857Z" fill="#F7F7F6"/>
<path d="M51.2229 334.491H54.3086L55.5429 335.726V339.428L54.3086 340.663L51.2229 340.046L49.9886 339.428V335.726L51.2229 334.491Z" fill="#F2F1F1"/>
<path d="M130.217 298.697H137.623V303.017H125.897V302.4L130.217 301.783V299.314V298.697Z" fill="#475E6A"/>
<path d="M339.429 286.971H340.046L340.663 293.76L341.897 291.291L344.366 292.526L344.983 293.76V302.4H344.366L343.749 295.611L342.514 298.697L341.28 297.463H340.046L339.429 296.229V286.971Z" fill="#334C58"/>
<path d="M335.109 130.834H338.811L340.046 132.686L339.429 135.771L338.811 136.389H335.109L333.874 134.537L334.491 131.451L335.109 130.834Z" fill="#F4F4F3"/>
<path d="M253.028 99.9772H256.114L257.348 101.211V104.914L256.731 105.531H252.411L251.177 103.68L251.794 101.211L253.028 99.9772Z" fill="#F5F6F5"/>
<path d="M353.006 93.1885L356.091 93.8057L356.709 94.4228V98.1257L355.474 99.36H352.389L351.154 98.1257V94.4228L353.006 93.1885Z" fill="#F6F6F6"/>
<path d="M262.903 448.663H265.989L267.223 449.897L266.606 454.217H262.903L261.051 452.366L261.669 449.28L262.903 448.663Z" fill="#F5F5F5"/>
<path d="M190.08 396.823L193.783 397.44L194.4 398.057L193.783 402.377L190.08 402.994L188.846 401.76V398.057L190.08 396.823Z" fill="#F6F6F6"/>
<path d="M361.646 365.966H365.349L365.966 366.583V370.903L365.349 371.52H361.029L360.411 370.903V367.2L361.646 365.966Z" fill="#F9F9F9"/>
<path d="M175.269 335.726L177.737 336.343L185.76 344.366L184.526 344.983L183.909 346.217L175.269 337.577V335.726Z" fill="#A7A7A7"/>
<path d="M388.8 334.491H391.885L393.737 336.343L393.12 339.428L392.503 340.046H388.8L387.565 338.811V335.726L388.8 334.491Z" fill="#F6F6F5"/>
<path d="M140.091 219.086H141.326V220.32H146.88V220.937L141.326 221.554L129.6 233.28L128.366 232.663L132.686 227.726L138.857 221.554L140.091 219.086Z" fill="#A3A2A2"/>
<path d="M204.274 146.88V148.731L200.571 152.434V154.286L193.783 161.074L191.931 159.223L196.869 154.286L199.954 151.2L204.274 146.88Z" fill="#A6A6A6"/>
<path d="M324 144.411L325.851 145.029L324.617 147.497L317.211 154.903H315.977L316.594 151.817L324 144.411Z" fill="#979798"/>
<path d="M261.669 43.8171H266.606L269.074 46.2856V50.6056L267.84 52.4571H265.989L266.606 47.5199L265.989 46.2856H262.286L260.434 47.5199L261.051 44.4342L261.669 43.8171Z" fill="#999A9B"/>
<path d="M117.874 290.674H118.492L119.109 297.463L120.343 298.697V299.931L122.194 301.783L120.343 303.017H111.086V302.4L116.023 301.783V299.931L113.554 298.697H117.874V290.674Z" fill="#546A74"/>
<path d="M302.4 117.257L303.634 117.874L285.12 136.389L284.503 138.24L281.417 138.857L285.12 134.537L302.4 117.257Z" fill="#F2F2F2"/>
<path d="M311.04 80.8457H314.743L315.977 82.08V85.1657L314.743 86.4H311.04L310.423 85.7828V81.4628L311.04 80.8457Z" fill="#F7F6F5"/>
<path d="M143.794 70.3543H147.497L148.114 70.9715V75.2915L147.497 75.9086H143.794L142.56 74.6743V71.5886L143.794 70.3543Z" fill="#F7F7F7"/>
<path d="M180.823 46.2857H183.909L185.143 47.52V51.2228L184.526 51.84H180.206L179.589 51.2228V47.52L180.823 46.2857Z" fill="#F6F7F8"/>
<path d="M220.937 2.46857H224.023L225.257 3.70285V7.40571L224.64 8.02285H220.32L219.703 7.40571V3.70285L220.937 2.46857Z" fill="#F3F4F4"/>
<path d="M103.68 364.731H108.617L110.469 366.583V367.817L104.914 367.2L104.297 367.817L103.68 372.137H101.829L101.211 367.817L103.68 364.731Z" fill="#A0A0A0"/>
<path d="M80.8457 308.571H83.9314L80.2286 312.891L71.5886 321.531L70.9714 319.68L77.76 312.891L78.9943 310.423L80.8457 308.571Z" fill="#A8A8A8"/>
<path d="M37.6459 212.914L40.1144 213.531L41.3487 214.766V217.851L40.1144 219.086H37.0287L35.7944 217.851V214.766L37.6459 212.914Z" fill="#F8F8F7"/>
<path d="M233.28 145.028H238.217L243.771 151.2L245.006 153.668H243.154L236.983 147.497L232.046 146.88L233.28 146.263V145.028Z" fill="#9A9A9A"/>
<path d="M297.463 69.1199L298.697 69.7371L297.463 70.9714V72.8228V75.9085L298.697 76.5256V77.7599L301.783 78.3771V78.9942H296.846L294.994 80.2285L293.143 78.9942L294.994 77.1428V72.2056L297.463 69.1199Z" fill="#ADADAC"/>
<path d="M354.24 405.463H357.326L358.56 406.697V409.783L357.326 411.017H353.623L353.006 410.4V406.697L354.24 405.463Z" fill="#F7F7F7"/>
<path d="M78.3773 364.114H79.6115V365.349H78.3773V369.669L79.6115 371.52H83.3144L83.9315 373.371L82.6973 373.989H78.3773L75.9087 370.903V366.583L78.3773 364.114Z" fill="#A2A3A3"/>
<path d="M104.914 366.583H108L109.234 367.817V371.52L108.617 372.137H104.914L103.68 370.903V367.817L104.914 366.583Z" fill="#F5F6F5"/>
<path d="M61.7143 342.514H65.4172L66.6515 343.749V346.834L65.4172 348.069H62.3315L61.0972 346.834V343.132L61.7143 342.514Z" fill="#FCFCFC"/>
<path d="M22.2172 306.103L24.6857 309.189L25.92 310.423H29.6229L30.24 306.72L30.8572 309.189H32.0914L30.8572 312.274L29.0057 313.509L24.6857 312.891L22.2172 309.806V306.103Z" fill="#A7A7A7"/>
<path d="M370.286 291.291L374.606 294.994L379.543 299.931L378.309 302.4L370.286 294.377V291.291Z" fill="#A6A6A6"/>
<path d="M375.84 157.371H379.543L380.777 158.606V161.691L379.543 162.926H376.457L375.223 161.691V157.989L375.84 157.371Z" fill="#FAF9F9"/>
<path d="M204.891 29.6229H207.977L209.211 30.8571V34.56L208.594 35.1771H204.891L203.657 33.9429V30.8571L204.891 29.6229Z" fill="#F7F7F8"/>
<path d="M261.669 446.811H263.52V448.046L265.371 448.663L261.669 449.28V453.6L263.52 454.217V455.451L265.989 456.686H262.286L259.2 453.6V449.28L261.669 446.811Z" fill="#A7A7A7"/>
<path d="M304.251 108H309.188L311.657 109.851L312.274 114.171L311.657 112.32H310.423L309.806 114.171L308.571 110.469H305.486L304.251 113.554L303.634 111.086H302.4L301.783 112.937L302.4 109.851L304.251 108Z" fill="#ABAAAA"/>
<path d="M182.057 53.6915L183.291 54.3086V74.6743H182.674L182.057 66.0343H181.44V54.9258L182.057 53.6915Z" fill="#ABABAC"/>
<path d="M178.354 450.514L179.588 452.983L180.823 454.217H183.908L185.76 451.131H186.994L186.377 455.451L184.526 456.686H179.588L177.737 454.834V451.131L178.354 450.514Z" fill="#A1A1A1"/>
<path d="M133.303 389.417H136.389L137.623 390.652V393.737L136.389 394.972H133.303L132.069 393.737V390.652L133.303 389.417Z" fill="#F9F8F8"/>
<path d="M237.6 461.006L238.834 461.623L238.217 467.794L243.154 468.411V470.263H238.217L235.748 467.794V463.474L237.6 461.006Z" fill="#A3A3A3"/>
<path d="M141.943 69.1199L143.794 69.7371L142.56 70.9714L143.794 75.2914L146.88 76.5256L146.263 78.3771H142.56L140.708 76.5256L140.091 71.5885L141.943 69.1199Z" fill="#A1A1A0"/>
<path d="M141.326 372.137H142.56L141.326 374.606L129.6 386.331H128.366L129.6 383.863L141.326 372.137Z" fill="#9B9B9A"/>
<path d="M221.554 233.897H222.171L222.788 263.52L224.64 264.754V265.988L221.554 267.223V233.897Z" fill="#CA5B22"/>
<path d="M181.44 207.36H182.057V241.303H183.291V243.771L181.44 243.154V207.36Z" fill="#0C2A3A"/>
<path d="M107.383 128.983L111.086 129.6L112.32 131.451V135.771L109.851 138.24H106.149L106.766 137.006L109.234 136.389L109.851 132.686L109.234 131.451L106.766 130.217L107.383 128.983Z" fill="#989897"/>
<path d="M175.269 356.091H177.737L176.503 358.56L173.417 362.263H165.394V361.028H171.566L172.8 358.56L175.269 356.091Z" fill="#989898"/>
<path d="M230.811 181.44L233.897 183.291V185.143L229.577 188.229L228.343 187.611V183.909L230.811 181.44Z" fill="#1D3D4C"/>
<path d="M188.229 101.211L190.697 104.297L195.017 103.68L196.251 101.211H198.103L197.486 104.297L195.017 106.766H190.08L188.229 104.914V101.211Z" fill="#979797"/>
<path d="M351.771 91.3372H355.474L357.943 92.5714L359.177 94.4229V98.1257L356.091 101.211L355.474 98.7429L356.091 98.1257V94.4229L354.857 93.8057V91.9543H351.771V91.3372Z" fill="#ABACAC"/>
<path d="M282.652 89.4857L285.12 90.1029L281.417 94.4229L275.863 99.9771L274.629 98.7429L277.714 95.04L281.417 90.72L282.652 89.4857Z" fill="#A2A2A2"/>
<path d="M185.76 48.7543H186.994L186.377 52.4571L180.823 55.5428L177.737 51.84V49.3714H178.971L180.206 51.2228H184.526L185.76 48.7543Z" fill="#A4A6A6"/>
<path d="M277.097 338.811H278.331L278.948 341.28H277.714L277.097 343.131L272.16 347.451L270.926 348.068L270.308 345.6L272.777 344.366L274.011 341.897L277.097 338.811Z" fill="#A5A5A5"/>
<path d="M69.7372 291.909L70.3544 294.377L67.2687 297.463L61.7144 303.017H60.4801L61.7144 299.932L69.7372 291.909Z" fill="#9D9D9D"/>
<path d="M385.097 195.634H404.846L402.994 196.869L385.714 197.486L385.097 195.634Z" fill="#9B9C9C"/>
<path d="M335.109 128.366L339.429 128.983L341.897 130.834V135.154H341.28V131.451H340.046V130.217L333.257 132.068L332.64 135.154H332.023V130.834L335.109 128.366Z" fill="#A0A0A0"/>
<path d="M240.686 102.446H241.303L241.92 123.429L240.069 124.046V108L240.686 102.446Z" fill="#919191"/>
<path d="M369.668 345.6L372.137 346.834L373.371 348.068V352.388L370.903 354.857L370.286 353.623H365.966L366.583 352.388H370.286L370.903 351.771V348.686L367.2 347.451L369.668 345.6Z" fill="#A6A6A6"/>
<path d="M132.686 343.131L133.92 343.748L130.834 346.834L125.28 352.388L123.429 354.24V352.388L125.897 348.686L130.834 343.748L132.686 343.131Z" fill="#9F9F9F"/>
<path d="M126.514 251.794H140.092L139.474 253.646H126.514V251.794Z" fill="#9F9F9F"/>
<path d="M205.509 293.143H212.914V296.228H205.509V293.143Z" fill="#153142"/>
<path d="M430.148 248.091H432V257.349H430.765V256.114L428.914 255.497L429.531 253.029L430.148 251.794H428.914L429.531 248.709L430.148 248.091Z" fill="#B3B3B3"/>
<path d="M247.474 66.0343L249.326 66.6514L248.091 69.12L242.537 74.6743L240.069 72.8229L245.006 68.5029L247.474 66.0343Z" fill="#A7A7A8"/>
<path d="M166.629 146.263L169.097 147.497L173.417 151.817L175.269 153.051L172.8 154.903V153.669L170.332 152.434L166.629 148.731V146.263Z" fill="#9C9C9C"/>
<path d="M399.291 262.903L401.143 263.52V268.457L398.674 270.926H393.737V269.074L398.057 268.457L398.674 267.84L399.291 262.903Z" fill="#9E9E9E"/>
<path d="M45.0515 215.383H58.6287L61.7144 218.469L62.9487 220.32H61.7144L61.0972 221.554L57.3944 217.851L54.9258 216.617L45.0515 216V215.383Z" fill="#A5A5A5"/>
<path d="M190.08 81.4629L191.314 82.08V83.3143L193.166 83.9315L195.634 87.6343H194.4V97.5086H190.697V96.8915H193.783L193.166 87.6343L189.463 83.9315L190.08 81.4629Z" fill="#B7B7B7"/>
<path d="M205.509 49.3715L206.743 51.84L207.36 52.4572L207.977 61.7143L206.743 63.5657L205.509 62.3315V49.3715Z" fill="#A3A3A4"/>
<path d="M128.366 414.72H132.686V415.337L128.983 415.954L128.366 421.509L128.983 424.594H127.749L125.28 420.891V417.806L128.366 414.72Z" fill="#A6A6A6"/>
<path d="M189.463 394.971H193.783L195.634 396.823H194.4L193.783 398.057L190.08 397.44L188.846 401.143L188.229 399.291H186.994L186.377 401.76V398.057L189.463 394.971Z" fill="#A9AAAA"/>
<path d="M254.263 120.96L258.583 124.663L261.668 128.366H260.434L259.817 129.6L253.028 122.811L254.263 120.96Z" fill="#A7A6A6"/>
<path d="M128.366 297.463H129.6L130.217 298.697L132.069 299.931L130.217 301.783H137.006V302.4H125.897L126.514 299.314H128.366V297.463Z" fill="#132F3D"/>
<path d="M325.851 232.046L328.32 233.28L332.64 236.983V238.217L336.96 238.834V239.451H331.406L325.851 233.897V232.046Z" fill="#969595"/>
<path d="M373.371 158.606H374.606V161.691L376.457 162.309V164.16L373.371 165.394L371.52 166.629H369.669V167.863H368.434L369.669 165.394L372.754 162.309L373.371 158.606Z" fill="#979797"/>
<path d="M277.714 329.554L282.034 333.257L285.737 337.577L284.503 339.428V338.194L282.651 337.577L278.331 332.64L277.097 330.171L277.714 329.554Z" fill="#A5A5A5"/>
<path d="M148.731 286.354H167.863V290.674H167.246V286.971H154.903V290.674L153.668 288.823L152.434 290.674L151.2 290.057L152.434 287.588L148.731 286.971V286.354Z" fill="#A8B3B7"/>
<path d="M137.006 83.3143H138.24V87.6343L135.154 89.4858H131.451L129.6 87.6343L130.217 85.7829L132.686 87.0172L135.771 86.4L137.006 83.3143Z" fill="#999A99"/>
<path d="M380.777 327.086L385.097 330.789L387.566 333.874L385.714 335.726L381.394 330.789L379.543 328.32L380.777 327.086Z" fill="#ACACAC"/>
<path d="M304.869 286.971H315.977V287.589H305.486V300.549H306.72V301.783H310.423V302.4H304.869V286.971Z" fill="#0E2938"/>
<path d="M348.686 399.909L352.388 402.994L357.943 403.612V404.229H352.388L354.24 406.08L353.006 409.166H351.771L350.537 410.4L351.154 404.229L348.686 401.76V399.909Z" fill="#B0B1B1"/>
<path d="M337.577 196.869H340.046L338.812 199.337L333.874 204.274L332.023 202.423L337.577 196.869Z" fill="#AAAAAA"/>
<path d="M267.84 448.046L269.074 449.28V453.6L267.223 456.069H262.903L263.52 454.217H266.606V449.28H267.84V448.046Z" fill="#A0A1A1"/>
<path d="M119.726 225.257L120.96 227.726L118.491 229.577L116.023 230.811L108.617 238.217V236.366L119.726 225.257Z" fill="#A5A5A5"/>
<path d="M371.52 166.011L372.137 167.246L365.348 172.8H363.497L361.028 174.034L364.114 170.331L368.434 167.246L369.668 167.863V166.629L371.52 166.011Z" fill="#A7A7A8"/>
<path d="M204.274 27.7714H208.594L211.063 29.6229L210.446 32.0914L207.977 30.24H204.891L203.04 31.4743L202.423 30.24L203.04 28.3886L204.274 27.7714Z" fill="#9EA0A1"/>
<path d="M409.783 303.017H413.486L416.571 305.486L415.954 307.954L415.337 310.423L414.103 309.806V306.103L409.783 305.486L407.931 304.251L409.783 303.017Z" fill="#A4A5A4"/>
<path d="M148.114 298.697H149.349V299.932H150.583V298.697L153.051 299.932L154.286 303.017H149.349L148.114 299.932V298.697Z" fill="#2C4452"/>
<path d="M235.131 224.023L238.217 224.64L240.686 227.109L235.749 226.491L233.28 227.726L232.663 228.96L229.577 228.343L232.046 225.874L235.131 224.023Z" fill="#D26E35"/>
<path d="M162.926 143.177L165.394 143.794L167.246 146.263L166.011 148.114L164.16 146.263L151.2 145.646V145.028L162.309 144.411L162.926 143.177Z" fill="#B2B2B2"/>
<path d="M25.3028 303.017H29.0057L30.2399 303.634L29.6228 306.103L25.9199 305.486L23.4514 309.189H22.8342V305.486L25.3028 303.017Z" fill="#9E9E9E"/>
<path d="M250.56 87.0172L252.411 87.6343L253.029 98.7429L251.177 99.36L250.56 92.5714V87.0172Z" fill="#9B9C9C"/>
<path d="M203.04 427.063V428.914L201.806 432L198.103 436.32L195.634 435.703L196.868 433.234L199.954 430.148L203.04 427.063Z" fill="#ACACAC"/>
<path d="M352.388 286.971H363.497V290.057H358.56L359.177 288.206L352.388 287.589V286.971Z" fill="#0C2B38"/>
<path d="M385.097 166.629L386.331 169.097L386.949 170.949H389.417V172.183H384.48L382.629 173.417L381.394 171.566L384.48 168.48L385.097 166.629Z" fill="#AEAEAE"/>
<path d="M361.028 128.983L365.348 129.6L367.817 131.451V135.771L366.583 137.006L364.731 135.771L365.348 132.686V131.451L363.497 130.834V129.6L361.028 128.983Z" fill="#A3A3A3"/>
<path d="M327.703 379.543L330.171 380.777L333.257 383.863V386.949L328.937 383.246L327.086 381.394L327.703 379.543Z" fill="#9D9FA0"/>
<path d="M333.257 368.434L335.726 371.52H338.811L340.663 370.286L340.046 373.371L338.811 373.989H335.109L333.257 372.754V368.434Z" fill="#969696"/>
<path d="M361.646 150.583H362.263L362.88 153.669L364.114 154.286V155.52L367.2 156.137L368.434 157.989H362.88L361.646 158.606L361.028 156.754L361.646 154.903V150.583Z" fill="#A5A5A5"/>
<path d="M297.463 423.36L301.783 423.977L304.251 427.063V430.148L301.783 427.063L299.931 425.828H297.463V424.594L295.611 425.211V423.977L297.463 423.36Z" fill="#A8A8A8"/>
<path d="M256.731 395.589L258.583 396.823V401.143L256.114 404.228H253.028L253.646 402.994H255.497L256.114 397.44L256.731 395.589Z" fill="#ABABAB"/>
<path d="M404.846 285.12L406.08 286.354L405.463 290.674L402.994 293.143H398.674V292.526H402.377L403.611 286.354L404.846 285.12Z" fill="#B7B7B7"/>
<path d="M194.4 87.6343H196.252V93.1886L195.634 98.7429H194.4V87.6343Z" fill="#9D9D9D"/>
<path d="M30.857 233.897H35.7941L34.5599 234.514V235.748L31.4741 236.366L30.857 240.686H30.2399V237.6H29.0056V241.303H28.3884V236.983L30.857 233.897Z" fill="#A6A6A6"/>
<path d="M331.406 362.263L334.491 365.349V367.2V368.434H333.257V372.137L332.023 370.286L332.64 365.349L330.171 364.114L329.554 362.88L331.406 362.263Z" fill="#AAAAAA"/>
<path d="M354.24 319.68L356.708 320.914L361.028 325.234L358.56 326.469L354.24 321.531V319.68Z" fill="#999A99"/>
<path d="M309.189 293.143H314.743V296.228H309.189V293.143Z" fill="#163444"/>
<path d="M50.6058 164.777H52.4572V169.097L53.0744 172.183H56.1601V172.8H52.4572L49.9886 169.714V165.394L50.6058 164.777Z" fill="#A7A6A6"/>
<path d="M315.977 82.6971L316.594 85.1657L317.829 85.7829L314.743 88.8686L309.806 88.2514L311.657 87.6343V86.4L315.36 85.1657L315.977 82.6971Z" fill="#A9A9A8"/>
<path d="M337.577 274.011L338.812 274.629L337.577 277.714L335.726 279.566H334.492V280.8H332.023L333.257 278.331L337.577 274.011Z" fill="#A7A7A7"/>
<path d="M351.772 201.188L353.623 201.806L349.92 206.743L347.452 207.977V205.508L351.772 201.188Z" fill="#999898"/>
<path d="M375.223 155.52H380.16V156.754L375.84 157.988V162.308L373.988 161.691L374.606 158.606H373.371V161.691H372.754V157.988L375.223 155.52Z" fill="#A2A3A2"/>
<path d="M130.217 109.234H133.92L132.686 109.851V111.086L130.217 112.937L128.983 115.406L128.366 114.171L127.131 115.406L127.749 111.703L130.217 109.234Z" fill="#AFAEAF"/>
<path d="M309.188 386.331L310.423 386.949L309.188 389.417L309.805 393.12L310.423 395.589L307.954 394.354L307.337 393.737V388.183L309.188 386.331Z" fill="#9D9C9C"/>
<path d="M82.08 343.131L83.3142 345.6L80.2285 348.686L79.6114 347.451H75.2914V345.6L77.76 344.983L80.2285 346.217L81.4628 343.748L82.08 343.131Z" fill="#AAAAA9"/>
<path d="M341.897 308.571H344.983V309.806L347.451 311.04L348.686 312.891L347.451 314.743L343.131 310.423L341.897 309.806V308.571Z" fill="#AAAAAB"/>
<path d="M117.257 308.571H119.108L117.874 311.04L113.554 314.743L112.32 312.891L117.257 308.571Z" fill="#A3A3A2"/>
<path d="M356.709 293.143H362.263V296.228H356.709L357.326 294.994L356.709 293.143Z" fill="#0D2835"/>
<path d="M154.903 286.971H167.246V290.057H163.543L164.777 288.206L155.52 287.589L154.903 290.057V286.971Z" fill="#0C2A3A"/>
<path d="M107.383 265.371L109.852 266.606L114.172 270.926L111.703 272.16L107.383 267.223V265.371Z" fill="#A2A2A2"/>
<path d="M298.08 148.731L301.166 149.349L298.697 151.817H296.846L294.377 153.669L295.611 151.2L298.08 148.731ZM292.526 154.286L293.76 154.903L289.44 158.606L290.674 156.137L292.526 154.286Z" fill="#ADADAE"/>
<path d="M246.857 369.668L248.091 372.137L243.771 376.457L241.92 374.606L246.857 369.668Z" fill="#A2A2A3"/>
<path d="M354.857 293.143L357.326 293.76L357.943 295.611H356.709V298.697L354.857 297.463L355.474 298.08L354.857 299.314H353.006L354.24 293.76L354.857 293.143Z" fill="#1F3946"/>
<path d="M398.674 240.069L400.525 241.303L406.08 240.686L405.463 242.537L402.994 243.771L398.674 243.154L398.057 241.92L398.674 240.069Z" fill="#ABABAB"/>
<path d="M154.903 362.263H162.309V363.497L164.16 364.114L161.074 367.817L159.223 365.966L161.691 362.88H154.903V362.263Z" fill="#B0AFB0"/>
<path d="M47.5199 335.726L48.7542 338.194L49.9885 336.343V339.429L52.457 340.663V341.897H55.5428V342.514H50.6056L47.5199 338.811V335.726Z" fill="#ABA9A8"/>
<path d="M37.0285 211.063H40.1142L37.0285 214.148L35.7942 217.234L33.9427 216.617V213.531L37.0285 211.063Z" fill="#A9A9AA"/>
<path d="M207.36 461.623L209.829 462.24L211.063 463.474V467.177L209.829 468.411L208.594 467.794V464.091L205.509 462.857L207.36 461.623Z" fill="#A7A7A7"/>
<path d="M325.234 309.189H328.32L332.023 313.509H330.789L330.172 314.743L325.234 309.806V309.189Z" fill="#A1A3A3"/>
<path d="M273.394 286.971H277.097V299.314L278.331 299.931L276.48 300.549L275.863 299.314L276.48 287.589H274.011V292.526H273.394V286.971Z" fill="#0E2C3D"/>
<path d="M130.217 138.857L132.686 139.474L135.771 142.56L135.154 144.411L132.686 143.177L130.217 140.708V138.857Z" fill="#999998"/>
<path d="M142.56 133.92L146.88 137.623V139.474H145.029L141.326 135.154L142.56 133.92Z" fill="#A5A4A4"/>
<path d="M248.709 47.5201H250.56V65.4172H249.943L249.326 50.6058H248.709V47.5201Z" fill="#8E9191"/>
<path d="M385.714 336.96H387.566L388.8 339.429L391.886 340.046L389.417 340.663V342.514L386.948 341.897L385.714 340.046V336.96Z" fill="#A2A2A1"/>
<path d="M216 225.257L221.554 227.109L222.171 228.96L219.703 229.577L214.766 226.491L216 225.257Z" fill="#43789C"/>
<path d="M399.291 211.063L403.611 211.68L406.08 214.148V217.851L405.463 215.383H404.228L403.611 217.851L402.377 213.531L401.76 211.68L399.291 211.063Z" fill="#ACACAC"/>
<path d="M117.874 125.28L122.194 128.983L122.811 130.217L121.577 132.069L117.257 127.749L117.874 125.28Z" fill="#A5A5A4"/>
<path d="M257.966 112.32L259.2 113.554L253.646 119.109L252.411 117.874L253.029 116.023H254.88L255.497 113.554L257.966 112.32Z" fill="#ECEBEB"/>
<path d="M261.669 355.474L262.903 356.709L258.583 361.029L255.497 362.263L256.731 359.794L261.669 355.474Z" fill="#969696"/>
<path d="M98.1256 290.674H101.828V294.377H98.1256V290.674Z" fill="#F9F9F8"/>
<path d="M61.7141 220.32L64.1827 220.937L67.2684 224.64L65.417 225.874L61.7141 222.171V220.32Z" fill="#989999"/>
<path d="M299.931 219.086L303.634 222.171L302.4 222.789L301.783 224.023L299.314 221.554L293.143 220.937V220.32L299.314 219.703L299.931 219.086Z" fill="#AEAEAE"/>
<path d="M148.731 196.251L150.583 198.103L146.263 202.423L145.028 201.188L146.263 198.72L148.731 196.251Z" fill="#A4A3A3"/>
<path d="M310.423 112.32H311.657V115.406L308.571 117.874L303.017 117.257L305.486 116.64L307.337 117.257V116.023L309.806 114.171L310.423 112.32Z" fill="#A0A0A0"/>
<path d="M233.28 369.668L234.514 370.286L233.897 372.754L232.663 375.84L230.811 376.457V372.137L233.28 369.668Z" fill="#979898"/>
<path d="M43.817 264.754L45.6685 267.223L44.4342 270.309L43.1999 270.926H38.8799L40.1142 269.074L43.1999 267.84L43.817 264.754Z" fill="#A3A3A3"/>
<path d="M178.354 161.691L180.206 163.543L176.503 167.246L174.651 166.629L175.886 164.16L178.354 161.691Z" fill="#A4A4A4"/>
<path d="M204.274 462.857H207.977L209.211 464.091L208.594 466.56L207.977 465.326H205.509H203.657L203.04 466.56L203.657 463.474L204.274 462.857Z" fill="#EFEFEE"/>
<path d="M240.069 351.771L241.92 353.623L238.217 357.326H236.366L237.6 354.24L240.069 351.771Z" fill="#A9A9A9"/>
<path d="M36.4115 263.52H37.6458L38.8801 267.84L41.9658 270.308H38.2629L36.4115 268.457V263.52Z" fill="#949393"/>
<path d="M296.846 171.566L297.463 172.8L296.228 172.183L296.846 171.566ZM295.611 172.8L297.463 174.034L293.143 177.737L291.291 176.503L295.611 172.8Z" fill="#AAAAAA"/>
<path d="M147.497 128.983L150.583 129.6L154.286 133.92H151.817L147.497 129.6V128.983Z" fill="#969595"/>
<path d="M238.217 62.9485H239.451L238.217 65.4171L233.28 70.3543L232.046 69.7371V68.5028L234.514 67.8857L235.749 65.4171L238.217 62.9485Z" fill="#969797"/>
<path d="M260.434 44.4343L261.051 45.6686L261.669 51.2228L262.903 51.84L260.434 52.4571L259.2 51.2228V46.2857L260.434 44.4343Z" fill="#ABABAB"/>
<path d="M293.143 421.509L295.611 422.743L296.228 424.594H297.463L296.846 427.063H294.994L293.143 423.977V421.509Z" fill="#969696"/>
<path d="M283.886 364.114L286.971 364.731L288.823 366.583V369.051L286.354 367.817L283.886 365.349V364.114Z" fill="#A2A1A1"/>
<path d="M56.16 336.343H57.3943V340.663L56.16 341.897H52.4572V340.663L55.5429 338.811L56.16 336.343Z" fill="#9F9E9E"/>
<path d="M2.46857 247.474H6.17143V248.091L3.08571 248.709L6.17143 249.326V249.943L2.46857 250.56L1.85143 254.263L1.23429 251.794H0L0.617143 249.326L2.46857 247.474Z" fill="#B3B3B1"/>
<path d="M132.686 109.851L135.771 110.469L137.623 112.32V116.023L135.771 115.406L134.537 112.32L132.686 111.086V109.851Z" fill="#A7A8A8"/>
<path d="M364.731 364.114L367.2 365.349L368.434 367.2V370.286L367.2 368.434L365.966 369.669L365.349 366.583L362.263 365.966L364.731 365.349V364.114Z" fill="#B2B2B2"/>
<path d="M73.4399 345.6H76.5256L75.2914 347.451H74.0571L72.8228 351.154H71.5885L72.2056 346.834L73.4399 345.6Z" fill="#9A9999"/>
<path d="M415.337 306.72L416.571 307.954L415.954 311.04L413.486 312.891H409.783V311.657L415.337 310.423V306.72Z" fill="#969796"/>
<path d="M380.16 156.137L382.628 157.371L383.246 161.074L382.628 159.84H381.394L380.777 161.074L379.543 157.989L376.457 157.371V156.754L380.16 156.137Z" fill="#B4B3B3"/>
<path d="M254.88 98.1257L257.966 98.7429L259.2 100.594V102.446H257.966L257.349 104.297L256.114 100.594L253.646 99.36L254.88 98.1257Z" fill="#ACADAD"/>
<path d="M261.669 446.811H263.52V448.046L265.371 448.663L261.669 449.28L261.051 450.514L259.817 449.897V453.6H259.2V449.28L261.669 446.811Z" fill="#AEAFAF"/>
<path d="M120.96 376.457H122.812L122.194 378.926L117.874 382.628V380.777L119.726 378.308L120.96 376.457Z" fill="#A4A5A5"/>
<path d="M207.977 254.88L209.211 255.497L207.977 258.583L206.743 259.817L204.891 258.583V256.731L207.977 254.88Z" fill="#5084A7"/>
<path d="M36.4114 238.217L37.0285 239.451H38.2628L37.0285 242.537L35.1771 243.771H31.4742V243.154H34.56L35.1771 240.686L36.4114 238.217Z" fill="#AEAEAE"/>
<path d="M78.3771 219.703L79.6114 220.32L88.8685 220.937V221.554L85.1656 222.171H78.3771V219.703Z" fill="#9A9B9B"/>
<path d="M82.08 175.886L84.5485 177.12L86.4 178.971V180.823L83.9314 180.206L82.08 178.354V175.886Z" fill="#9C9C9C"/>
<path d="M275.246 140.709H276.48L275.863 143.177L271.543 147.497H270.308L271.543 145.029L275.246 140.709Z" fill="#999998"/>
<path d="M85.1657 137.623L88.2514 140.709L89.4857 141.943V143.794L87.0171 142.56L83.9314 138.857H85.1657V137.623Z" fill="#9A9B9A"/>
<path d="M129.6 80.8457L131.451 82.08L130.834 86.4L128.983 87.0171L128.366 82.6971L129.6 80.8457Z" fill="#A8A7A7"/>
<path d="M304.252 73.4399H304.869V76.5257L303.017 78.3771L298.697 77.7599L301.166 76.5257L304.252 73.4399Z" fill="#9A9B9B"/>
<path d="M190.08 290.674H190.697V298.697H195.017V299.314L188.229 299.931V297.463H189.463L190.08 290.674Z" fill="#36505C"/>
<path d="M372.137 224.64L373.989 225.257L372.754 227.726L370.286 229.577L369.052 227.726L372.137 224.64Z" fill="#A6A6A6"/>
<path d="M236.366 187.611L237.6 188.228L235.131 193.166L233.28 191.314L234.514 188.846L236.366 187.611Z" fill="#464747"/>
<path d="M267.223 127.131L269.074 127.749L267.84 130.217L265.989 132.069H264.754L265.371 128.983L267.223 127.131Z" fill="#989797"/>
<path d="M302.4 111.086H303.634L304.868 115.406L301.783 116.64L299.314 117.874L301.166 115.406L302.4 111.086Z" fill="#9D9C9C"/>
<path d="M351.771 406.697L353.006 409.166L354.24 411.017L356.091 411.634V412.869H353.006L351.154 411.017L351.771 406.697Z" fill="#9B9D9E"/>
<path d="M141.326 372.137H142.56L141.326 374.606L137.006 378.926L136.388 377.074L141.326 372.137Z" fill="#949393"/>
<path d="M228.343 228.343L229.577 228.96L228.96 230.811L225.257 232.663L222.789 232.046L228.343 228.343Z" fill="#CE7543"/>
<path d="M335.108 128.366L339.428 128.983L341.897 130.834V135.154H341.28V131.451H340.046V130.217L335.726 130.834L337.577 130.217V128.983L335.108 128.366Z" fill="#ACABAC"/>
<path d="M257.966 102.446H259.2L258.583 106.149L257.348 107.383H253.028L254.263 106.149L257.348 104.297L257.966 102.446Z" fill="#999A99"/>
<path d="M211.063 30.2401H211.68V34.5601L209.211 37.0286V31.4743H210.446L211.063 30.2401Z" fill="#AFB0B0"/>
<path d="M277.097 338.811H278.332L278.949 341.28H277.714L277.097 343.131L275.246 343.748L274.629 341.28L277.097 338.811Z" fill="#ACACAC"/>
<path d="M247.474 296.229H251.794V298.697H247.474V296.229Z" fill="#E5E9EA"/>
<path d="M404.229 215.383H405.463V219.086L403.612 220.937H402.377V219.703L399.909 219.086L403.612 217.851L404.229 215.383Z" fill="#A1A1A1"/>
<path d="M332.64 208.594L335.108 209.829L336.343 211.68L335.108 213.532L331.406 209.212L332.64 208.594Z" fill="#AAA9A9"/>
<path d="M414.72 197.486H417.189L415.954 199.954L414.103 201.189H410.4L412.869 199.954L414.72 197.486Z" fill="#9F9E9E"/>
<path d="M128.366 113.554L130.834 116.64L131.451 119.108L128.983 118.491L127.748 116.64L128.366 113.554Z" fill="#A2A2A1"/>
<path d="M82.697 88.8685H86.3999L89.4856 91.3371L88.8684 92.5714L86.3999 91.9542L84.5484 90.1028L82.697 88.8685Z" fill="#AFAFAF"/>
<path d="M267.84 355.474L270.926 356.091L272.777 357.943V359.177L270.926 359.794L267.84 356.091V355.474Z" fill="#A5A5A5"/>
<path d="M253.029 349.92H254.263L253.646 352.388L251.177 354.857L249.326 354.24L253.029 349.92Z" fill="#989898"/>
<path d="M244.389 348.686H245.623L244.389 351.154L242.537 353.006L240.686 352.388L241.92 349.92L244.389 348.686Z" fill="#9F9F9F"/>
<path d="M360.411 309.189H363.497L365.966 312.274L363.497 312.892L360.411 309.189Z" fill="#9F9FA0"/>
<path d="M205.509 293.143H210.446L207.977 294.377L207.36 295.611H211.063V296.228H205.509V293.143Z" fill="#0F2A3A"/>
<path d="M196.251 47.5201H198.103V49.9887H196.869V59.2458H196.251V47.5201Z" fill="#989A99"/>
<path d="M143.794 422.743H148.731L146.88 424.594L143.177 425.211L142.56 423.36L143.794 422.743Z" fill="#A8A9A9"/>
<path d="M393.12 333.874L395.588 336.343L394.971 339.429L393.12 338.811L392.503 334.491L393.12 333.874Z" fill="#9A9A9A"/>
<path d="M30.2399 304.251L32.0913 305.486L32.7084 307.337L36.4113 307.954V308.571L30.857 309.189L30.2399 304.251Z" fill="#939293"/>
<path d="M404.229 235.131L406.08 235.748L406.697 240.068L404.229 240.686V235.131Z" fill="#989898"/>
<path d="M99.36 177.737H102.446L103.063 178.971L102.446 180.206L104.914 181.44L104.297 183.291L99.36 178.354V177.737Z" fill="#A8A8A8"/>
<path d="M191.931 159.84L193.166 160.457L193.783 167.246H191.931V159.84Z" fill="#959595"/>
<path d="M82.697 161.074L85.1656 161.691V162.926L87.017 162.309L88.2513 164.16L87.6342 166.629L82.697 161.691V161.074Z" fill="#AAAAAA"/>
<path d="M72.2056 148.731L73.4399 150.583L72.2056 154.903L70.9713 152.434L69.7371 154.903L70.3542 150.583L72.2056 148.731Z" fill="#A6A6A5"/>
<path d="M314.126 133.303H315.36L314.743 135.771L312.274 138.24H311.04L311.657 135.771L314.126 133.303Z" fill="#909090"/>
<path d="M177.737 49.3715H178.971L180.823 51.84L182.674 53.0743L179.588 53.6915L177.737 51.84V49.3715Z" fill="#969798"/>
<path d="M241.303 427.063L243.771 427.68L245.623 430.148L243.154 430.766L240.686 427.68L241.303 427.063Z" fill="#A4A4A3"/>
<path d="M318.446 419.04H319.063V422.743L317.211 425.211H315.977L315.36 423.36L317.211 421.508H318.446V419.04Z" fill="#A7A7A7"/>
<path d="M58.6284 169.097L59.2455 170.948L57.3941 172.183H53.0741V170.948L58.6284 169.097Z" fill="#999999"/>
<path d="M69.7371 164.16L72.8228 165.394L74.0571 167.246L72.2056 168.48L69.7371 166.011V164.16Z" fill="#9D9C9C"/>
<path d="M132.069 124.046L134.537 125.28L135.771 127.131H134.537L133.92 128.366L130.834 124.663L132.069 124.046Z" fill="#A2A2A1"/>
<path d="M177.737 46.2857H180.206L179.589 50.6057L178.972 49.3714H177.737L177.12 51.2228V47.52L177.737 46.2857Z" fill="#A5A6A7"/>
<path d="M103.68 370.903L108 372.137V372.754H104.914V373.989H108.617V374.606H104.297L102.446 372.137H103.68V370.903Z" fill="#AEADAE"/>
<path d="M137.623 361.028L139.474 361.646L134.537 366.583L133.92 364.731L137.623 361.028Z" fill="#A8A7A7"/>
<path d="M428.297 251.794H430.149L429.531 253.646L418.423 253.028V252.411L428.297 251.794Z" fill="#909191"/>
<path d="M233.897 224.64L235.131 225.257L234.514 227.109L232.663 228.96L229.577 228.343L232.046 225.874L233.897 224.64Z" fill="#D17A48"/>
<path d="M59.2457 170.331L62.3314 173.417L60.48 174.651L57.3943 171.566L59.2457 170.331Z" fill="#A7A7A7"/>
<path d="M225.257 489.394L225.874 491.246H227.109L226.492 493.714L224.023 494.949L224.64 491.863L225.257 489.394Z" fill="#AEAEAD"/>
<path d="M93.8058 403.611L95.6572 404.846L96.2744 411.017L94.4229 409.783L93.8058 403.611Z" fill="#A1A3A3"/>
<path d="M191.931 379.543H193.783L192.549 382.011L189.463 384.48L190.08 382.011L191.931 379.543Z" fill="#9B9B9A"/>
<path d="M152.434 346.217H153.668L152.434 348.686L148.731 351.771L149.348 349.303L151.2 348.686V346.834L152.434 346.217Z" fill="#A1A1A2"/>
<path d="M394.354 261.051L398.674 261.669L399.908 262.903L398.674 264.754L395.588 262.903V261.669L394.354 261.051Z" fill="#ACABAB"/>
<path d="M331.406 137.006L334.491 137.623L331.406 140.708L329.554 138.857L331.406 137.006Z" fill="#ABACAB"/>
<path d="M238.834 27.1542L241.303 27.7714L240.686 28.3885L241.92 29.6228H238.217L235.748 30.8571L236.983 28.3885L238.834 27.1542Z" fill="#B0B1B2"/>
<path d="M224.023 0.617188L227.109 2.46862L227.726 6.17147H225.874L225.257 3.08576L224.023 0.617188Z" fill="#A7A8A9"/>
<path d="M90.1029 403.611H93.8058L94.4229 407.314L90.1029 406.08L91.9543 405.463V404.229L90.1029 403.611Z" fill="#B3B4B4"/>
<path d="M301.783 309.189H304.251L303.017 316.594H302.4L301.783 309.189Z" fill="#A3A3A4"/>
<path d="M104.297 293.76H105.531L106.148 297.463L104.297 298.08V296.846H103.063L103.68 294.377L104.297 293.76Z" fill="#1D3846"/>
<path d="M404.846 285.12L406.08 286.354L405.463 289.44H403.611V286.354L404.846 285.12Z" fill="#B0B0B0"/>
<path d="M215.383 201.188L216.617 201.806L213.531 205.508L211.063 204.891L213.531 202.423L215.383 201.188Z" fill="#497DA1"/>
<path d="M22.8342 198.103L28.3885 199.337V200.571H24.0685L22.8342 198.103Z" fill="#8F8F8F"/>
<path d="M385.097 195.634H391.269V196.869L385.714 197.486L385.097 195.634Z" fill="#949595"/>
<path d="M411.017 190.697L414.72 191.314L415.954 192.549H414.72L414.103 193.783L409.783 191.931L411.017 190.697Z" fill="#B1B0B1"/>
<path d="M205.509 183.909L206.743 184.526L203.657 187.611H200.571L203.657 185.143L205.509 183.909Z" fill="#223C4B"/>
<path d="M354.24 164.16L355.474 164.777V166.011L351.771 169.097H350.537L351.771 166.628H353.006V164.777L354.24 164.16Z" fill="#959595"/>
<path d="M193.166 120.96H194.4L193.166 123.429L190.697 125.28V122.811L193.166 120.96Z" fill="#969696"/>
<path d="M146.88 69.1199L149.348 69.7371L149.966 74.0571H148.731L146.88 70.3542V69.1199Z" fill="#A0A1A1"/>
<path d="M240.686 27.7714L243.771 28.3886L245.006 29.6229L244.389 31.4743L240.069 29.0057L240.686 27.7714Z" fill="#9C9F9F"/>
<path d="M178.972 447.428L180.206 448.046L179.589 450.514L178.354 451.131L177.12 453.6V449.897L178.972 447.428Z" fill="#A6A7A7"/>
<path d="M252.411 402.377H255.497L253.028 404.229L251.794 407.931H251.177V402.994L252.411 402.377Z" fill="#979898"/>
<path d="M188.229 396.823H189.463L188.846 401.143L188.229 399.291H186.994L186.377 401.76V398.057L188.229 396.823Z" fill="#BDBDBD"/>
<path d="M132.686 386.948L137.006 387.566L137.623 390.651L133.92 389.417L135.154 388.8V387.566L132.686 386.948Z" fill="#AEADAD"/>
<path d="M322.149 354.24L325.234 355.474L325.851 357.943L323.383 357.326L322.149 356.091V354.24Z" fill="#9C9C9C"/>
<path d="M140.709 286.971H144.411V293.143L145.646 293.76L143.794 294.377L142.56 293.143H143.794V287.589H140.709V286.971Z" fill="#0C2938"/>
<path d="M70.9713 151.817H71.5884L72.8227 155.52V157.371L70.9713 156.754L70.3541 152.434L70.9713 151.817Z" fill="#929190"/>
<path d="M359.794 129.6H363.497V130.834L360.411 132.069H359.177L357.943 132.686L359.177 130.217L359.794 129.6Z" fill="#9C9D9D"/>
<path d="M106.148 128.366L108.617 128.983L107.383 130.217L104.914 131.451L103.063 130.834L104.914 128.983L106.148 128.366Z" fill="#A8A8A8"/>
<path d="M186.994 298.08L188.846 299.931V301.783L186.377 301.166L186.994 298.08Z" fill="#163140"/>
<path d="M37.6456 282.651H41.9656L39.497 283.269V284.503L40.7313 285.12L37.6456 285.737L37.0284 283.269L37.6456 282.651Z" fill="#B3B3B3"/>
<path d="M34.5601 234.514L37.0286 235.131L38.2629 237.6L37.0286 238.834L34.5601 235.748V234.514Z" fill="#A0A0A0"/>
<path d="M29.6227 235.749H30.857V240.686H30.2399V237.6H29.0056V241.303H28.3884V236.983L29.6227 235.749Z" fill="#ADADAD"/>
<path d="M408.548 198.103L413.485 199.337L412.868 200.571H409.165L408.548 198.103Z" fill="#939191"/>
<path d="M361.029 170.948L361.646 173.417L357.943 176.503L358.56 174.034L361.029 170.948Z" fill="#F2F2F2"/>
<path d="M328.937 139.474L330.788 140.091L329.554 142.56H327.703V140.709L328.937 139.474Z" fill="#A1A1A2"/>
<path d="M185.143 45.0515L186.994 46.9029L187.611 50.6057L186.994 48.7543H185.76L185.143 49.9886V45.0515Z" fill="#B0B2B2"/>
<path d="M238.217 29.0057L239.451 29.6228L238.217 30.8571L236.983 33.3257L235.748 34.56V30.8571L238.217 29.0057Z" fill="#9FA09F"/>
<path d="M293.143 399.291L296.228 401.76V402.994L293.76 402.377L292.526 399.908L293.143 399.291Z" fill="#9C9D9E"/>
<path d="M367.2 367.817H367.817V371.52L366.583 372.754L364.731 372.137H365.965L366.583 368.434L367.2 367.817Z" fill="#9C9C9C"/>
<path d="M140.091 357.326L141.943 359.177L139.474 361.029L137.623 359.794L140.091 357.326Z" fill="#A4A4A4"/>
<path d="M233.28 355.474H237.6L236.366 356.091V357.326H232.663L233.28 355.474Z" fill="#9D9D9D"/>
<path d="M387.566 333.257L389.417 333.874L387.566 336.96H385.714L386.948 333.874L387.566 333.257Z" fill="#9C9C9C"/>
<path d="M325.234 309.189H328.32L329.554 311.04L327.703 312.274L325.234 309.189Z" fill="#A9A9AA"/>
<path d="M409.783 303.017H413.486L412.251 303.634V304.869L409.783 305.486L407.931 304.251L409.783 303.017Z" fill="#ACACAB"/>
<path d="M44.4342 286.971H46.9028V288.206L45.0513 288.823L44.4342 290.057H42.5828L43.1999 287.589L44.4342 286.971Z" fill="#9C9B9B"/>
<path d="M186.994 286.971L190.08 287.589L187.611 290.057H186.377L186.994 286.971Z" fill="#274151"/>
<path d="M137.006 83.3143H138.24V87.6343L135.771 88.2515L137.006 83.3143Z" fill="#8C8C8D"/>
<path d="M130.834 79.6113H135.771L134.537 80.8456L130.217 81.4628L130.834 79.6113Z" fill="#9A9B9B"/>
<path d="M108 372.137H109.851L109.234 373.989H104.914V372.754L108 372.137Z" fill="#949495"/>
<path d="M365.966 352.388H372.137V354.24L370.286 354.857V353.623H365.966V352.388Z" fill="#AEADAD"/>
<path d="M324 328.32L325.851 329.554V331.406L323.383 330.788L322.149 328.937L324 328.32Z" fill="#A0A1A0"/>
<path d="M393.737 283.269L397.44 283.886L396.206 286.354L394.354 285.737L393.737 283.269Z" fill="#ECEBEB"/>
<path d="M320.914 277.097H322.149L320.914 279.566L320.297 280.183H317.211L317.829 278.948L320.914 277.097Z" fill="#A1A1A0"/>
<path d="M404.228 213.531L406.08 214.149V217.851L405.463 215.383H404.228L403.611 217.851V214.149L404.228 213.531Z" fill="#B5B5B6"/>
<path d="M384.48 164.16L385.714 164.777L385.097 169.714L383.863 168.48V164.777L384.48 164.16Z" fill="#A3A4A3"/>
<path d="M369.051 154.903H370.903L369.668 157.371H366.583L369.051 154.903Z" fill="#999898"/>
<path d="M110.469 135.771H111.703L111.086 137.623L109.851 138.24H106.149L106.766 137.006L110.469 135.771Z" fill="#919190"/>
<path d="M267.84 105.531L269.074 106.766L266.606 108.617H265.371L264.137 109.234L265.371 106.766L267.84 105.531Z" fill="#A1A1A1"/>
<path d="M191.931 84.5485L194.4 85.7828L195.634 87.6342L193.783 88.2514L191.931 86.4V84.5485Z" fill="#A3A4A4"/>
<path d="M315.977 81.4629L318.446 82.08L317.828 85.1657H316.594L315.977 81.4629Z" fill="#9B9D9D"/>
<path d="M298.697 69.1199H302.4L301.166 70.9714L296.846 71.5885L298.697 69.1199Z" fill="#A4A4A5"/>
<path d="M135.772 394.971L138.24 395.589V396.823H133.303L133.92 395.589L135.772 394.971Z" fill="#A0A0A0"/>
<path d="M141.943 384.48H143.177L141.943 386.949L139.474 387.566L140.709 385.097L141.943 384.48Z" fill="#979797"/>
<path d="M109.851 368.434H111.086V372.137L109.851 373.371V372.137L108.617 371.52L109.851 368.434Z" fill="#A1A1A1"/>
<path d="M314.743 346.217L317.829 348.069V349.303L314.743 348.686V346.217Z" fill="#9C9C9C"/>
<path d="M387.566 338.811L391.886 340.046L389.417 340.663V342.514L386.948 341.28H388.183L387.566 338.811Z" fill="#B7B6B6"/>
<path d="M402.377 283.269L404.846 284.503L404.228 286.354L400.526 284.503L402.377 283.269Z" fill="#A3A3A3"/>
<path d="M333.257 278.331H335.726V279.566H334.492V280.8H332.023L333.257 278.331Z" fill="#A0A0A0"/>
<path d="M37.6458 261.668H38.8801V262.903L40.1144 263.52L38.8801 264.137L37.6458 266.606V263.52L36.4115 262.903L37.6458 261.668Z" fill="#AAAAAA"/>
<path d="M180.206 239.451H180.823V243.154L183.908 244.389L181.44 245.006L180.206 244.389V239.451Z" fill="#DDE0E1"/>
<path d="M210.446 204.891L213.531 205.509V206.743H212.297L211.68 207.977L209.828 207.36L210.446 204.891Z" fill="#326892"/>
<path d="M263.52 74.6743H264.754L263.52 77.1429L261.051 78.3772L261.669 75.9086L263.52 74.6743Z" fill="#969797"/>
<path d="M202.423 29.0057L203.657 31.4742L203.04 33.3257V32.0914H201.806L201.189 34.56V30.8571L202.423 29.0057Z" fill="#B8B8B8"/>
</svg>
